<?xml version="1.0" standalone="no"?>
<!DOCTYPE svg PUBLIC "-//W3C//DTD SVG 1.1//EN" "http://www.w3.org/Graphics/SVG/1.1/DTD/svg11.dtd" >
<svg xmlns="http://www.w3.org/2000/svg" xmlns:xlink="http://www.w3.org/1999/xlink" version="1.1">
<metadata></metadata>
<defs>
<font id="klartext_monoregular" horiz-adv-x="520" >
<font-face units-per-em="1000" ascent="800" descent="-200" />
<missing-glyph horiz-adv-x="500" />
<glyph horiz-adv-x="0" />
<glyph unicode="&#xd;" horiz-adv-x="333" />
<glyph unicode=" " />
<glyph unicode="!" d="M230 643q0 7 35 7t35 -7v-489q0 -5 -9 -6t-26 -1t-26 1t-9 6v489zM230 80q0 7 35 7t35 -7v-74q0 -5 -9 -5.5t-26 -0.5t-26 0.5t-9 5.5v74z" />
<glyph unicode="&#x22;" d="M350 580q0 -7 -35 -7h-16q-8 1 -13.5 2t-5.5 5v108q0 7 35 7h16q8 -1 13.5 -2t5.5 -5v-108zM250 580q0 -7 -35 -7h-16q-8 1 -13 2t-5 5v108q0 7 34 7h16q19 -2 19 -7v-108z" />
<glyph unicode="#" d="M144 211h-113q-7 0 -7 34v16q2 19 7 19h113v93h-113q-7 0 -7 34v16q1 8 2 13.5t5 5.5h113v112q0 5 8.5 6t25.5 1h16q8 -1 13.5 -1.5t5.5 -5.5v-112h92v112q0 5 9 6t26 1h16q8 -1 13 -1.5t5 -5.5v-112h113q5 0 6 -9t1 -26v-16q-1 -8 -1.5 -13t-5.5 -5h-113v-93h113 q5 0 6 -9t1 -26v-16q-1 -8 -1.5 -13t-5.5 -5h-113v-113q0 -7 -34 -7q-14 0 -24.5 1t-10.5 6v113h-92v-113q0 -7 -35 -7q-13 0 -23.5 1t-10.5 6v113zM305 280v93h-92v-93h92z" />
<glyph unicode="$" d="M45 182q0 5 9.5 6t25.5 1q15 0 25 -1t10 -6q0 -38 9.5 -59.5t25.5 -33t35.5 -15t39.5 -4.5v245q-31 10 -61.5 23t-55 33t-39.5 49.5t-15 73.5q0 51 16 81t41 46.5t55 22t59 6.5v43q0 7 34 7q35 0 35 -7v-44q27 -2 56.5 -8.5t54.5 -25t41.5 -52.5t16.5 -91q0 -5 -9.5 -6 t-24.5 -1q-16 0 -25.5 1t-9.5 6q0 35 -9.5 56t-24 32t-32 15t-34.5 5v-214q30 -10 62 -23.5t58 -35.5t42.5 -55t16.5 -82q0 -54 -16.5 -87t-42.5 -50.5t-58 -24t-62 -7.5v-43q0 -7 -35 -7q-34 0 -34 7v43q-29 1 -60.5 7.5t-58 25t-44 54t-17.5 94.5zM225 580 q-20 0 -38.5 -2.5t-32.5 -11t-22.5 -25.5t-8.5 -47q0 -25 8.5 -42t23 -29t32.5 -20t38 -15v192zM294 70q22 1 42 4t35 13t24 30t9 54q0 29 -9 48.5t-24.5 33.5t-35.5 23t-41 17v-223z" />
<glyph unicode="%" d="M342 654q1 3 6 3q6 0 16 -3t19.5 -7.5t16.5 -8.5t7 -6v-1l-230 -635q-2 -3 -6 -3q-6 0 -16 3t-19.5 7t-16.5 8t-7 7v1zM401 0q-22 0 -44 2.5t-39.5 18.5t-28.5 50t-11 97t10.5 97.5t27.5 50.5t39.5 18.5t45.5 2.5q24 0 46 -2.5t39.5 -18.5t28 -50.5t10.5 -97.5t-10 -97 t-27.5 -50t-40 -18.5t-46.5 -2.5zM401 69q14 0 24.5 1.5t17 11t10 29.5t3.5 57t-4 57.5t-11 30t-17 11t-23 1.5q-14 0 -24 -1.5t-16.5 -10.5t-9.5 -29.5t-3 -58.5q0 -37 3 -57t9.5 -29.5t16.5 -11t24 -1.5zM116 313q-22 0 -43.5 2.5t-39 18t-28.5 50t-11 97.5t10.5 97.5 t27.5 50.5t39 18.5t45 2.5q24 0 46.5 -2.5t40 -18.5t28 -50.5t10.5 -97.5t-10.5 -97t-27.5 -50t-39.5 -18.5t-47.5 -2.5zM116 382q15 0 25.5 1.5t17 11t10 29.5t3.5 57t-3.5 57.5t-10.5 30t-17 11t-23 1.5q-15 0 -25 -1t-17 -10t-10 -29.5t-3 -59.5q0 -37 3 -57t10 -29.5 t16.5 -11t23.5 -1.5z" />
<glyph unicode="&#x26;" d="M432 7q0 13 -4 30t-19 39q-13 -40 -59 -58.5t-116 -18.5q-76 0 -117 17t-60 44t-22.5 61t-3.5 69q0 28 2 51.5t10 44t24 36.5t45 29q-34 43 -45 73.5t-11 58.5q0 22 2.5 50.5t19.5 54t53.5 43.5t104.5 18q64 0 98.5 -17.5t51 -43.5t19.5 -56t3 -56q0 -33 -4.5 -62 t-20.5 -51.5t-46 -36.5t-81 -18q5 -4 20.5 -16.5t33.5 -27.5t34.5 -29.5t24.5 -22.5v53q0 7 34 7q17 0 26 -1t9 -6v-17.5v-34t-0.5 -36t-1.5 -24.5q23 -26 36 -47t19.5 -39t8 -32.5t1.5 -27.5q0 -5 -11 -6.5t-23 -1.5q-13 0 -24 1.5t-11 6.5zM183 373q6 0 15 1q7 1 17 1.5 t23 0.5q37 0 57.5 7t30 20.5t11 33t1.5 43.5q0 21 -1.5 39.5t-11 32t-30 21t-58.5 7.5q-41 0 -63.5 -7.5t-33.5 -20t-13 -29t-2 -34.5q0 -16 2 -28.5t8 -25t17.5 -27.5t30.5 -35zM233 68q67 0 93.5 16.5t31.5 45.5q-21 19 -47.5 41.5t-54 45t-52.5 43.5t-43 38 q-24 -5 -36.5 -16t-18 -27t-6 -36.5t-0.5 -44.5t2 -43.5t14.5 -33.5t39.5 -21.5t77 -7.5z" />
<glyph unicode="'" d="M226 688q0 7 35 7h16q8 -1 13 -2t5 -5v-108q0 -7 -34 -7h-16q-19 2 -19 7v108z" />
<glyph unicode="(" d="M390 -22q7 0 7 -34q0 -35 -7 -35q-22 0 -47 1.5t-49.5 10.5t-47.5 28.5t-40.5 55.5t-28 92t-10.5 137v219q0 81 10.5 137t28 92t40.5 55.5t47.5 28.5t49.5 10.5t47 1.5q7 0 7 -35q0 -34 -7 -34q-26 0 -53 -3t-49.5 -26.5t-37 -76t-14.5 -150.5v-219q0 -66 7 -110.5 t18.5 -73t27 -43.5t32.5 -21.5t34.5 -7t34.5 -0.5z" />
<glyph unicode=")" d="M129 -91q-7 0 -7 35q0 34 7 34q25 0 52.5 3t50 26t37 75.5t14.5 151.5v219q0 94 -13 145.5t-34 76t-47 29.5t-51 5q-5 0 -8.5 0.5t-5 3.5t-2 10t-0.5 20q0 35 7 35q22 0 47 -1.5t49.5 -10.5t47.5 -28.5t40.5 -55.5t28 -92t10.5 -137v-219q0 -81 -10.5 -137t-28 -92 t-40.5 -55.5t-47.5 -28.5t-49.5 -10.5t-47 -1.5z" />
<glyph unicode="*" d="M229 252l-118 -99q-1 -1 -3 -1t-9 6.5t-14.5 15.5t-13.5 17t-6 11q0 2 2 4l143 120l-143 120q-2 2 -2 3q0 3 5.5 11.5t13 17t14.5 15.5t10 7q2 0 3 -1l118 -99v154q0 7 35 7t35 -7v-154l118 99q1 1 2 1q3 0 10 -7t14.5 -15.5t13 -17t5.5 -11.5q0 -2 -1 -3l-144 -120 l144 -120q1 -1 1 -3q0 -3 -5.5 -11.5t-13 -17.5t-14.5 -15.5t-10 -6.5q-1 0 -2 1l-118 99v-154q0 -5 -9 -6t-26 -1t-26 1t-9 6v154z" />
<glyph unicode="+" d="M227 291h-164q-7 0 -7 35q0 34 7 34h164v164q0 7 34 7q35 0 35 -7v-164h163q8 0 8 -34q0 -35 -8 -35h-163v-163q0 -5 -9 -6t-26 -1t-25.5 1t-8.5 6v163z" />
<glyph unicode="," d="M248 0h-13q-5 0 -5.5 7.5t-0.5 21.5v13q0 7 1 12t6 4h70v-134q0 -5 -7.5 -5.5t-21.5 -0.5h-13q-16 0 -16 6v76z" />
<glyph unicode="-" d="M102 291q-7 0 -7 35q0 34 7 34h316q7 0 7 -34q0 -35 -7 -35h-316z" />
<glyph unicode="." d="M224 80q0 7 35 7t35 -7v-74q0 -5 -9 -5.5t-26 -0.5t-26 0.5t-9 5.5v74z" />
<glyph unicode="/" d="M341 654q1 3 6 3q6 0 16 -3t19.5 -7t17 -8.5t7.5 -6.5v-1l-230 -635q-2 -3 -6 -3q-7 0 -17 3t-19.5 7t-16 8t-6.5 6v2z" />
<glyph unicode="0" d="M263 0q-21 0 -45 1.5t-47.5 10.5t-45 28.5t-38 55.5t-26 92t-9.5 137t10 137t26 92t38 55.5t45 28.5t47 10.5t45 1.5t44.5 -1.5t46.5 -10.5t44 -29t36.5 -56t25 -91.5t9.5 -136.5t-9.5 -136.5t-25 -91.5t-36.5 -56t-44 -29t-46.5 -10.5t-44.5 -1.5zM261 581 q-15 0 -31.5 -0.5t-32 -7t-29.5 -21t-24.5 -43t-16.5 -73.5t-6 -111q0 -51 4 -87.5t12 -61.5q6 12 22 43.5t37.5 72.5t44.5 86t43.5 84t35 66.5t17.5 33.5q-17 16 -37 17.5t-39 1.5zM262 69q24 0 48.5 2.5t44.5 25.5t32.5 75t12.5 152q0 61 -6 102.5t-15 67.5 q-6 -11 -22.5 -43t-38 -74.5t-46 -89t-45 -87t-35.5 -69.5t-18 -35q10 -11 21 -17t22.5 -8t22.5 -2h22z" />
<glyph unicode="1" d="M103 0q-7 0 -7 34q0 35 7 35h155v500h-15q-1 0 -18 -14t-37.5 -31t-37.5 -31.5t-18 -15.5t-3 -1q-3 0 -10 7t-14 16t-12.5 17.5t-5.5 11.5l17 14.5t39 33t43.5 36t31.5 24.5q14 10 20 12t12 2h78v-581h147q5 0 6 -9t1 -26t-1 -25.5t-6 -8.5h-372z" />
<glyph unicode="2" d="M460 69q5 0 6 -9.5t1 -25.5t-1 -25t-6 -9h-396v76q0 45 16.5 80.5t43.5 64t61.5 52.5t69.5 47q63 39 96 75t33 87q0 36 -9 56t-25.5 29.5t-39.5 11t-50 1.5q-26 0 -47.5 -2.5t-37 -13.5t-24.5 -34t-9 -63q0 -5 -8.5 -6t-25.5 -1t-26 1t-9 6q0 66 19 103t47.5 54.5 t61 21.5t59.5 4q22 0 55 -2.5t63.5 -18t52 -49t21.5 -96.5q0 -41 -13.5 -74t-35.5 -60t-50 -48t-56 -38q-36 -23 -66 -43.5t-51.5 -42.5t-33.5 -46.5t-12 -54.5v-8h326z" />
<glyph unicode="3" d="M68 176q0 7 35 7q17 0 25.5 -1t8.5 -6q0 -38 9 -59.5t25 -32t37.5 -13t46.5 -2.5q21 0 44.5 2t43 12.5t32 33.5t12.5 66q0 37 -12.5 59t-33 33t-47 14t-53.5 3h-42q-5 0 -6 9t-1 25t1 25.5t6 9.5h42q21 0 43.5 2t40.5 11.5t30 30.5t12 60q0 43 -10.5 66.5t-26 34.5 t-34.5 13t-36 2q-26 0 -48.5 -2.5t-39 -13.5t-26 -34t-9.5 -64q0 -7 -34 -7q-35 0 -35 7q0 64 18.5 100.5t47 55t61.5 23t63 4.5q18 0 48 -3t59 -20t50 -55t21 -107q0 -37 -8.5 -61.5t-19 -39.5t-20 -23t-12.5 -11q4 -3 17 -10t27 -23.5t25.5 -44.5t11.5 -71 q0 -68 -24.5 -104.5t-57.5 -53.5t-66 -20t-49 -3q-29 0 -62.5 4t-62.5 21t-48 52.5t-19 98.5z" />
<glyph unicode="4" d="M338 217h-267v67q0 12 8.5 43.5t21.5 72.5t28 85.5t28 81.5t22 61.5t9 25.5q1 3 6 3q6 0 16 -3t19.5 -7t17 -8t7.5 -7v-1q-1 -2 -9.5 -26t-20.5 -59t-26 -76.5t-26 -78t-20 -63t-8 -32.5v-6q0 -3 15 -4t41.5 -1t61.5 0.5t76 0.5v209q0 7 35 7q34 0 34 -7v-209h65 q5 0 6 -11t1 -24q0 -12 -1 -23t-6 -11h-65v-210q0 -5 -8.5 -6t-25.5 -1t-26 1t-9 6v210z" />
<glyph unicode="5" d="M78 155q0 5 11 6t23 1q13 0 24 -1t11 -6q0 -32 7.5 -49t20.5 -25.5t30 -10t35 -1.5q30 0 56 1t45 13t30 40.5t11 83.5q0 48 -12 74.5t-30.5 39t-42 14.5t-46.5 2q-24 0 -40.5 -4t-27.5 -9q-12 -5 -20 -12h-74v338h335q5 0 6 -12t1 -23q0 -12 -1 -23t-6 -11h-266v-192h2 q7 4 20 8q11 3 29 6t45 3q20 0 53.5 -3t65.5 -21.5t55 -60t23 -117.5t-20 -117t-50 -60.5t-64 -23t-62 -3.5q-17 0 -46.5 1.5t-58.5 15t-50.5 45.5t-21.5 93z" />
<glyph unicode="6" d="M274 0q-19 0 -42.5 1.5t-47 10.5t-45.5 28.5t-39 56t-27 92t-10 137.5q0 80 10 135t26.5 91t38 56t44.5 29t46 11t43 2q23 0 48 -2t49 -13t44 -34t32 -65v-1q0 -3 -7.5 -7t-17.5 -7t-20 -5t-14 -2q-6 0 -7 3q-8 24 -17.5 37t-22.5 19t-29.5 7t-36.5 1q-26 0 -49.5 -3.5 t-42.5 -24.5t-31.5 -66.5t-15.5 -128.5v-26q26 34 59.5 43.5t75.5 9.5q24 0 57.5 -3t64 -21.5t52 -58.5t21.5 -115q0 -70 -21 -108t-50.5 -55.5t-62 -20.5t-55.5 -3zM271 69q24 0 46 1.5t39.5 12.5t27.5 35t10 69q0 48 -10.5 74.5t-28 38.5t-40.5 14t-48 2q-26 0 -47.5 -3 t-37.5 -15.5t-26 -37t-14 -67.5q9 -47 22.5 -72.5t30.5 -37t36.5 -13t39.5 -1.5z" />
<glyph unicode="7" d="M126 23q1 2 21 40.5t49 96.5t63 125.5t63 127.5t48 103t19 52v13h-294q-5 0 -6 10t-1 24t1 24.5t6 10.5h364v-89q0 -10 -11.5 -39.5t-30.5 -71t-43.5 -91.5t-49.5 -100.5t-49.5 -98.5t-43.5 -85.5t-31 -60.5t-13 -24q-2 -5 -12.5 0t-21.5 11t-20 11.5t-7 10.5z" />
<glyph unicode="8" d="M263 0q-73 0 -113 16.5t-59 42.5t-23 58.5t-4 64.5q0 25 1 48t7.5 43.5t20.5 38t40 31.5q-21 13 -32 29.5t-16 36t-5.5 41.5t-0.5 48q1 26 6.5 53t24.5 49t55 36t98 14q68 0 105 -16.5t54.5 -42.5t20.5 -57.5t3 -61.5q0 -21 -1.5 -39t-7 -34t-16.5 -30t-29 -26 q26 -13 40 -30.5t20.5 -38t7.5 -43.5t1 -47q0 -32 -3.5 -65t-22 -59.5t-59 -43t-113.5 -16.5zM263 373q42 0 65.5 6.5t34 19.5t12.5 32.5t2 44.5t-2 45t-12.5 33t-34 20t-65.5 7q-43 0 -66 -7t-34 -20.5t-13 -32.5t-2 -43q0 -26 1.5 -45.5t12 -32.5t34 -20t67.5 -7zM263 69 q48 0 74 7.5t38.5 22.5t14.5 36t2 48q0 30 -1.5 53t-13.5 39.5t-38.5 25t-75.5 8.5q-48 0 -74.5 -8.5t-38.5 -24t-14.5 -37t-2.5 -48.5q0 -29 1.5 -51.5t13 -38.5t38 -24t77.5 -8z" />
<glyph unicode="9" d="M82 114q0 3 7.5 7t17 7t19.5 5t15 2q6 0 8 -3q7 -24 17 -36.5t22.5 -18.5t29 -7t36.5 -1q24 0 49 3.5t45 25.5t32.5 70t12.5 136v13q-26 -33 -59 -43t-75 -10q-25 0 -58.5 3t-64 21.5t-52 58.5t-21.5 115q0 70 21 108.5t50.5 56t62 20.5t55.5 3q19 0 42 -1.5t46.5 -10.5 t46 -28.5t39.5 -55.5t27.5 -92.5t10.5 -138.5q0 -80 -10 -135t-26.5 -91t-38 -55.5t-44.5 -29t-46 -11t-43 -1.5q-23 0 -48 2t-49 12.5t-44 33.5t-33 65v1zM259 333q26 0 47.5 3t37.5 15.5t26.5 37t14.5 68.5q-9 46 -22.5 71t-30 37t-35.5 14t-39 2q-25 0 -47.5 -1.5 t-40 -12.5t-28 -35.5t-10.5 -69.5q0 -49 10.5 -75t28 -38t40.5 -14t48 -2z" />
<glyph unicode=":" d="M226 149q0 7 35 7q34 0 34 -7v-74q0 -7 -34 -7q-35 0 -35 7v74zM226 423q0 8 35 8q34 0 34 -8v-73q0 -5 -8.5 -6t-25.5 -1t-26 1t-9 6v73z" />
<glyph unicode=";" d="M230 423q0 8 35 8t35 -8v-73q0 -5 -9 -6t-26 -1t-26 1t-9 6v73zM242 0h-13q-5 0 -5.5 7.5t-0.5 21.5v13q0 7 1 12t6 4h70v-129q0 -5 -7.5 -5.5t-21.5 -0.5h-13q-16 0 -16 6v71z" />
<glyph unicode="&#x3c;" d="M335 130q-50 50 -98.5 98t-97.5 98l21 21l37.5 37.5l45.5 45.5t44.5 44t33.5 33.5t14 13.5q1 1 3 1q3 0 10.5 -6.5t16 -14.5t14.5 -15.5t6 -10.5q0 -2 -1 -3l-148 -146l148 -147q1 -1 1 -3q0 -3 -6.5 -10.5t-14.5 -16t-15.5 -15t-10.5 -6.5q-1 0 -3 2z" />
<glyph unicode="=" d="M102 369q-7 0 -7 35q0 34 7 34h316q7 0 7 -34q0 -35 -7 -35h-316zM102 209q-7 0 -7 35q0 34 7 34h316q7 0 7 -34q0 -35 -7 -35h-316z" />
<glyph unicode="&#x3e;" d="M291 326l-148 146q-1 1 -1 3q0 3 6 10.5t14.5 15.5t16 14.5t10.5 6.5q2 0 3 -1q1 0 14 -13.5t33.5 -33.5t44.5 -44l45.5 -45.5l37.5 -37.5l21 -21q-49 -50 -97.5 -98t-98.5 -98q-2 -2 -3 -2q-3 0 -10.5 6.5t-16 15t-14.5 16t-6 10.5q0 2 1 3z" />
<glyph unicode="?" d="M213 80q0 7 35 7q34 0 34 -7v-73q0 -5 -8.5 -6t-25.5 -1t-26 1t-9 6v73zM213 159q0 42 13 73.5t31.5 57t40.5 47t40.5 43.5t31 47t12.5 58q0 35 -9.5 54.5t-25 28.5t-35 10.5t-38.5 1.5q-17 0 -36 -2t-35 -12.5t-26.5 -32.5t-10.5 -62q0 -5 -10.5 -6t-23.5 -1t-24 1 t-11 6q0 65 19.5 101t46.5 53t56 20.5t48 3.5q21 0 52 -1.5t60.5 -16t50.5 -48t21 -98.5q0 -43 -12.5 -74.5t-31 -56.5t-40.5 -46t-40.5 -43t-31.5 -47.5t-13 -59.5v-5q0 -5 -11 -6t-23 -1q-13 0 -24 1t-11 6v6z" />
<glyph unicode="@" d="M482 69q7 0 7 -35q0 -34 -7 -34h-178q-62 1 -113 9.5t-87.5 40.5t-57 94t-20.5 170q0 114 20.5 180.5t55.5 101t81.5 44.5t98.5 10h59q72 0 110 -36.5t38 -101.5v-364q0 -5 -9.5 -6t-25.5 -1q-34 0 -34 7v31q-8 -8 -14.5 -15t-16 -12t-24 -8t-36.5 -3q-23 0 -52 1.5 t-55 15t-44 42.5t-18 85q0 31 7.5 58.5t25.5 48.5t47.5 33t72.5 12h107q-1 24 0.5 49t-4 46t-22 34.5t-54.5 13.5h-39q-47 0 -85 -4.5t-65 -30t-41.5 -79.5t-14.5 -153q0 -91 14.5 -140.5t44 -72.5t73.5 -27t103 -4h152zM420 368h-98q-51 0 -72 -20t-21 -64q0 -28 7.5 -43 t20.5 -22t30 -8t36 -1t37 3t31 15.5t21 37t8 68.5v34z" />
<glyph unicode="A" d="M60 97q0 17 5.5 54t21 99t45 151.5t77.5 212.5q5 13 9 20.5t8 11t9 4t11 0.5h31q12 0 19 -4.5t17 -31.5l12 -33q45 -116 71.5 -199t41 -140.5t18.5 -92t4 -52.5v-90q0 -5 -10.5 -6t-24.5 -1t-24 1t-10 6v90q0 15 -2.5 32.5t-5.5 33.5l-8 36h-230q-4 -21 -8 -39 q-3 -16 -5.5 -33.5t-2.5 -29.5v-90q0 -5 -10.5 -6t-24.5 -1t-24 1t-10 6v90zM358 268q-13 48 -28.5 97t-29.5 89.5t-24.5 68t-13.5 33.5q-3 -3 -13.5 -29.5t-25 -67t-30.5 -91t-30 -100.5h195z" />
<glyph unicode="B" d="M81 650h213q29 0 51 -7.5t38 -20t26.5 -28t17.5 -31.5q16 -39 16 -87q1 -25 -3 -49q-3 -21 -11 -44t-25 -41q31 -17 47 -45t23 -55q8 -32 8 -67q-1 -49 -18 -88q-8 -17 -19.5 -32.5t-29 -27.5t-41.5 -19.5t-56 -7.5h-237v650zM310 360q25 0 38 17t19 37q7 24 7 55 q0 30 -7 55q-7 20 -22 37.5t-45 17.5h-150v-219h160zM325 69q33 0 51 14.5t26 33t9.5 36t1.5 23.5q0 40 -9.5 62.5t-20.5 34.5q-13 13 -29 18h-204v-222h175z" />
<glyph unicode="C" d="M404 192q0 5 9.5 6t25.5 1q15 0 24.5 -1t9.5 -6q0 -48 -11 -81.5t-28.5 -54.5t-40 -32.5t-45 -17t-43.5 -6t-35 -0.5q-22 0 -47 2t-49.5 11.5t-47 29t-40 56t-28 91.5t-10.5 135t10 135t27.5 91.5t40.5 56t48 29t51 11.5t50 2q13 0 33 -1t42.5 -6.5t44.5 -17.5t39.5 -34 t28.5 -56t11 -84q0 -5 -9.5 -6t-24.5 -1t-25 1t-10 6q0 49 -12.5 75.5t-31.5 38.5t-41.5 14t-41.5 2q-32 0 -60.5 -3.5t-51 -27t-35.5 -75.5t-13 -150t13.5 -150t35 -75.5t48.5 -27t53 -3.5q24 0 48.5 2t44 13.5t31.5 36.5t12 71z" />
<glyph unicode="D" d="M57 649h193q20 0 44 -1.5t48.5 -10t47 -28t40.5 -55.5t28.5 -92t10.5 -137q0 -80 -10.5 -135.5t-28 -91.5t-39.5 -56t-45.5 -29.5t-46.5 -11t-42 -1.5h-200v649zM257 69q20 0 45 2.5t46.5 25t36.5 75t15 151.5t-14 152t-35.5 76t-47 26t-48.5 3h-129v-511h131z" />
<glyph unicode="E" d="M77 617v33h377q7 0 7 -35t-7 -35h-308v-219h273q7 0 7 -35q0 -34 -7 -34h-273v-223h308q7 0 7 -34q0 -35 -7 -35h-377v617z" />
<glyph unicode="F" d="M72 650h375q7 0 7 -35q0 -34 -7 -34h-306v-220h306q7 0 7 -34q0 -35 -7 -35h-306v-285q0 -5 -8.5 -6t-25.5 -1t-26 1t-9 6v643z" />
<glyph unicode="G" d="M473 361v-173q0 -47 -10.5 -79t-28 -53t-39.5 -32.5t-44 -16.5t-42.5 -6t-35.5 -1q-22 0 -47 1.5t-50 10.5t-48 28.5t-41 56t-28.5 92t-10.5 137.5q0 81 10.5 136.5t28 91.5t40.5 55.5t47.5 28.5t49 10.5t45.5 1.5q22 0 48.5 -2t52.5 -12.5t48.5 -33t35.5 -63.5 q2 -5 -7.5 -8.5t-23.5 -8.5t-23.5 -7t-11.5 4q-7 24 -20.5 36.5t-29.5 18t-33.5 6.5t-33.5 1q-26 0 -53 -2.5t-49 -25t-36.5 -75t-14.5 -151.5q0 -101 14.5 -154t36.5 -76t49 -25.5t53 -2.5q19 0 42 1t43.5 11t34 33.5t13.5 69.5v108h-122q-5 0 -6 9.5t-1 25.5q0 15 1 24.5 t6 9.5h191z" />
<glyph unicode="H" d="M56 643q0 7 35 7q34 0 34 -7v-282h269v282q0 7 35 7q34 0 34 -7v-636q0 -7 -34 -7q-35 0 -35 7v285h-269v-285q0 -7 -34 -7q-35 0 -35 7v636z" />
<glyph unicode="I" d="M77 0q-7 0 -7 34q0 35 7 35h148v512h-148q-7 0 -7 34q0 35 7 35h365q7 0 7 -35q0 -34 -7 -34h-148v-512h148q7 0 7 -35q0 -34 -7 -34h-365z" />
<glyph unicode="J" d="M49 198q0 5 9.5 6t25.5 1q15 0 25 -1t10 -6q0 -48 11 -74t29.5 -38.5t42 -14.5t48.5 -2q27 0 51.5 2t42.5 13.5t29 37t11 72.5v387h-266q-5 0 -6 9t-1 26t1 25.5t6 8.5h335v-456q0 -72 -21 -111t-51.5 -57.5t-64.5 -22t-59 -3.5h-35t-44 5t-46 16t-41.5 33t-30 57 t-11.5 87z" />
<glyph unicode="K" d="M66 643q0 7 34 7q35 0 35 -7v-313l286 323q0 1 2 1q3 0 11 -6t16.5 -13.5t15.5 -14.5t7 -10q0 -2 -1 -3q-11 -12 -37.5 -42t-55.5 -63t-55 -62t-36 -41q7 -15 22 -44t33 -65.5t38 -76.5t38 -76.5t32.5 -66t22.5 -44.5v-2q0 -2 -7 -7t-16 -10.5t-18.5 -9.5t-14.5 -4 q-4 0 -5 3l-174 347l-104 -117v-219q0 -7 -35 -7q-34 0 -34 7v636z" />
<glyph unicode="L" d="M76 643q0 7 35 7q34 0 34 -7v-574h319q7 0 7 -34q0 -35 -7 -35h-388v643z" />
<glyph unicode="M" d="M32 650h92q19 0 23 -10t10 -23q5 -12 17.5 -41.5t27.5 -69t31 -83.5t29 -84q14 44 32.5 94t35.5 93q20 50 41 99q3 10 7.5 17.5t22.5 7.5h90v-643q0 -5 -10 -6t-25 -1t-24.5 1t-9.5 6v529h-6q-20 -48 -40 -100q-17 -45 -37.5 -100t-38.5 -112h-77q-17 54 -37.5 109.5 t-37.5 100.5q-21 53 -41 102h-6v-529q0 -5 -9.5 -6t-24.5 -1t-25 1t-10 6v643z" />
<glyph unicode="N" d="M55 650h85q14 0 20.5 -8t10.5 -16q19 -43 39 -91q17 -42 39.5 -96t46.5 -114q17 -44 34 -83t30 -68q15 -34 29 -64h6v532q0 5 10 6.5t25 1.5t24.5 -1.5t9.5 -6.5v-642h-86q-14 0 -19.5 8t-10.5 17q-17 38 -37 86q-17 41 -39.5 95.5t-47.5 117.5q-18 45 -35 84t-30 69 q-16 34 -29 64h-6v-534q0 -5 -9.5 -6t-24.5 -1t-25 1t-10 6v643z" />
<glyph unicode="O" d="M264 0q-22 0 -46.5 1.5t-49.5 10.5t-47.5 28.5t-39.5 55.5t-27.5 92t-10.5 137t10.5 137t27.5 92t39.5 56t47 29t49 10.5t46.5 1.5q34 0 72 -5.5t70 -36t53 -97t21 -187.5q0 -81 -10 -136.5t-26.5 -91.5t-38 -56t-45.5 -29t-48.5 -10.5t-46.5 -1.5zM263 69q17 0 34.5 0.5 t34 6.5t30.5 20.5t25 43t17 73.5t6 112q0 100 -13 153t-34 76t-47.5 25.5t-53.5 2.5q-25 0 -51.5 -2.5t-48.5 -25.5t-36 -76t-14 -153q0 -67 6.5 -112t18 -73.5t26.5 -43t32 -20.5t34.5 -6.5t33.5 -0.5z" />
<glyph unicode="P" d="M71 650h253q10 0 35 -5t51 -23t46.5 -53.5t20.5 -96.5q0 -64 -19 -100.5t-42.5 -55t-45.5 -23t-28 -4.5h-202v-282q0 -5 -9.5 -6t-25.5 -1q-15 0 -24.5 1t-9.5 6v643zM338 358q2 0 13 2t23.5 12.5t22.5 33.5t10 66q0 40 -12 62t-27 32.5t-29 12t-18 1.5h-181v-222h198z " />
<glyph unicode="Q" d="M260 0q-22 0 -46.5 1.5t-49 10.5t-47 28.5t-40 55.5t-28 92t-10.5 137t10.5 136.5t27.5 92t39.5 56t47.5 29t49.5 11t46.5 1.5t47 -1.5t49 -11t45.5 -29t38 -56t26.5 -92t10 -136.5q0 -97 -12.5 -157t-35.5 -95l86 -86q5 -5 -20 -30q-23 -25 -29 -19l-87 87 q-28 -19 -59 -22t-59 -3zM259 66q15 0 31.5 1.5t30.5 12.5q-14 13 -34 33.5t-39.5 40l-33.5 33.5l-14 14q-5 4 20 29q24 25 29 20q0 -1 15 -16l35.5 -35.5l42 -42l34.5 -34.5q15 27 22.5 74.5t7.5 125.5q0 67 -6 112.5t-16.5 74t-24.5 43t-30.5 20.5t-34.5 6.5t-35 0.5 t-34.5 -0.5t-34 -6.5t-31.5 -20.5t-26 -43t-17.5 -74t-6.5 -112.5t6.5 -112t18 -73.5t26.5 -43t31.5 -20.5t34 -6.5t33.5 -0.5z" />
<glyph unicode="R" d="M62 650h253q10 0 35 -5t51 -23t46.5 -53.5t20.5 -95.5q0 -48 -11.5 -78t-27 -48t-31 -26.5t-23.5 -13.5q-11 -7 -23 -10l124 -273v-1q0 -2 -6.5 -6.5t-16 -10t-19.5 -9.5t-16 -4q-4 0 -5 3l-134 294h-148v-283q0 -5 -9.5 -6t-24.5 -1t-25 1t-10 6v643zM330 359q1 0 12 2 t24 12.5t23 33.5t10 66q0 40 -12 62t-27.5 32.5t-29.5 12t-18 1.5h-181v-222h199z" />
<glyph unicode="S" d="M47 182q0 5 10 6.5t25 1.5t25 -1.5t10 -6.5q0 -42 11.5 -65t31 -33.5t44.5 -12.5t51 -2q31 0 58 2t46.5 11.5t30.5 30t11 58.5q0 36 -14 58.5t-37.5 37.5t-53.5 24.5t-63 20.5q-32 10 -64 23t-57 33t-40.5 50t-15.5 75q0 59 20.5 91t51.5 46.5t66 17t64 2.5q25 0 60 -3 t66.5 -19.5t53.5 -53t22 -102.5q0 -5 -9.5 -6.5t-25.5 -1.5q-15 0 -24.5 1.5t-9.5 6.5q0 40 -11.5 62t-30.5 32.5t-42.5 12.5t-47.5 2q-29 0 -53.5 -1.5t-42.5 -9.5t-28 -25.5t-10 -50.5q0 -30 11.5 -49.5t31.5 -32.5t46.5 -21.5t55.5 -17.5q33 -10 68 -22.5t64.5 -35 t48.5 -57t19 -88.5q0 -64 -22.5 -98.5t-55.5 -50.5t-70.5 -19t-67.5 -3q-27 0 -62.5 3t-68 20t-54.5 54.5t-22 105.5z" />
<glyph unicode="T" d="M225 581h-180q-7 0 -7 34q0 35 7 35h429q7 0 7 -35q0 -34 -7 -34h-179v-574q0 -7 -35 -7t-35 7v574z" />
<glyph unicode="U" d="M51 643q0 5 9.5 6t25.5 1q15 0 24.5 -1t9.5 -6v-456q0 -45 13 -69t33.5 -35.5t45.5 -13t50 -1.5q23 0 47.5 1t45 12t33.5 35t13 71v456q0 5 9.5 6t24.5 1t25 -1t10 -6v-456q0 -49 -11.5 -82t-30 -53.5t-42 -31.5t-46.5 -15.5t-43.5 -5t-33.5 -0.5q-14 0 -35 0.5t-44.5 5 t-47 15.5t-42.5 32t-31 53.5t-12 81.5v456z" />
<glyph unicode="V" d="M213 23q-12 31 -29 76.5t-35.5 97t-36 105.5t-31.5 103t-22.5 88t-8.5 62v88q0 5 9.5 6t24.5 1q16 0 25.5 -1t9.5 -6v-89q0 -18 7.5 -52t20 -76.5t28 -90.5t31 -92.5t29.5 -83.5t23 -63h3q10 25 24 63.5t29.5 83.5t31 93t27.5 91t19.5 77t7.5 52v18t0.5 25.5t0.5 25.5v18 q0 5 11 6t23 1q13 0 24 -1t11 -6v-88q0 -22 -8.5 -62t-22.5 -88.5t-31.5 -102.5t-35.5 -105.5t-35.5 -96.5t-30.5 -76q-8 -18 -13.5 -21t-12.5 -3h-40q-8 0 -13.5 3t-13.5 20z" />
<glyph unicode="W" d="M102 29q-17 53 -33 112.5t-28 118t-19.5 113.5t-7.5 99v171q0 5 9.5 6t25.5 1q15 0 24.5 -1t9.5 -6v-171q0 -40 6 -85.5t15.5 -92t21.5 -91.5t23 -84q14 39 27 82t22.5 79t15.5 60l6 24h78q10 -42 21 -84q10 -36 22.5 -79t26.5 -82q13 39 25 84t21.5 91.5t15 92.5t5.5 85 v171q0 5 9.5 6t25.5 1q15 0 24.5 -1t9.5 -6v-171q0 -44 -7 -99t-19 -114t-28 -118.5t-34 -113.5q-7 -20 -14.5 -23.5t-19.5 -3.5h-25q-8 0 -12.5 0.5t-8.5 5t-8.5 14.5t-10.5 29q-12 34 -26 83.5t-31 116.5q-11 -40 -21.5 -76t-19.5 -65t-15.5 -49.5t-9.5 -29.5 q-8 -22 -14 -25.5t-17 -3.5h-29q-11 0 -17.5 3.5t-14.5 25.5z" />
<glyph unicode="X" d="M39 28q11 18 29.5 50t42.5 72t51.5 86t56.5 93l-174 292q-1 1 -1 2q0 2 7 7.5t16 11.5t18 11t14 5q3 0 5 -2l155 -259l155 259q2 2 4 2q5 0 14.5 -5t18.5 -11t16 -11.5t7 -7.5q0 -1 -0.5 -1t-0.5 -1l-173 -292q28 -47 55.5 -93t51.5 -86t43 -72t30 -50v-2q0 -2 -7 -8 t-16.5 -12t-19 -10.5t-13.5 -4.5q-2 0 -4 2l-161 269l-161 -269q-2 -2 -4 -2q-4 0 -13.5 4.5t-19 10.5t-16.5 11.5t-7 7.5t1 3z" />
<glyph unicode="Y" d="M227 317q-30 47 -60 93t-56 86t-46.5 72t-32.5 51q-1 1 -1 2q0 2 7 8.5t16.5 13t18.5 11.5t13 5t22 -27t43.5 -67.5t54.5 -87.5t55 -87q26 40 55 87t54.5 87.5t44 67.5t21.5 27q4 0 13 -5t18 -11.5t16 -13t7 -8.5v-2l-194 -303v-309q0 -7 -35 -7q-34 0 -34 7v310z" />
<glyph unicode="Z" d="M55 92q0 14 12.5 38.5t35.5 57.5t54.5 74.5t69.5 89.5q32 42 59 78.5t47 65t31.5 46.5t11.5 23v15h-316q-5 0 -6 10t-1 25t1 25t6 10h385v-92q0 -12 -12 -36t-32.5 -55.5t-49 -69t-61.5 -77.5q-28 -35 -57.5 -74t-53.5 -72.5t-39.5 -57.5t-15.5 -30v-17h341q5 0 6 -9.5 t1 -25.5q0 -15 -1 -24.5t-6 -9.5h-410v92z" />
<glyph unicode="[" horiz-adv-x="510" d="M164 779h226q7 0 7 -35q0 -34 -7 -35h-157v-703h157q7 0 7 -35q0 -34 -7 -34h-226v842z" />
<glyph unicode="\" d="M112 631v1q0 2 7 6t16.5 8.5t19.5 7.5t16 3q4 0 6 -3l230 -635v-1q0 -3 -7 -7t-16.5 -8t-19.5 -7t-16 -3q-5 0 -6 3z" />
<glyph unicode="]" horiz-adv-x="500" d="M119 -63q-7 0 -7 35q0 33 7 34h157v703h-157q-7 0 -7 35q0 34 7 35h226v-842h-226z" />
<glyph unicode="^" d="M260 779q11 -12 39 -39.5t58.5 -58.5t58.5 -58.5t39 -39.5q4 -4 -1.5 -11t-17.5 -19q-12 -11 -19 -16.5t-11 -2.5l-15 15t-36.5 37t-47 47.5l-47.5 47.5l-47.5 -47.5l-47.5 -47.5l-37 -37l-15 -15q-4 -3 -11 2.5t-19 16.5q-11 12 -17 19t-2 11z" />
<glyph unicode="_" d="M512 69q8 0 8 -35q0 -34 -8 -34h-505q-7 0 -7 34q0 35 7 35h505z" />
<glyph unicode="`" d="M132 670q-3 1 -3 6q0 6 3.5 15.5t8.5 19.5t9.5 17t6.5 7h1l231 -94q2 -1 2 -5q0 -6 -3.5 -16t-8.5 -19.5t-9.5 -16.5t-5.5 -7h-1z" />
<glyph unicode="a" d="M260 -1q-27 0 -60 1.5t-62 15t-49 42.5t-20 85q0 31 9.5 58.5t30 48.5t54 33t81.5 12h134v66q0 31 -20 50.5t-65 19.5h-187q-5 0 -6 9.5t-1 24.5t1 25t6 10h188q72 0 112.5 -36.5t40.5 -101.5v-355q0 -5 -9.5 -6t-24.5 -1q-16 0 -25.5 1t-9.5 6v30q-16 -16 -42 -27 t-76 -11zM254 68q25 0 47.5 3t39.5 15.5t27 37t10 68.5v34h-135q-32 0 -52 -6t-32 -17.5t-16.5 -27t-4.5 -33.5q0 -28 8.5 -43t24 -22t37 -8t46.5 -1z" />
<glyph unicode="b" d="M80 642q0 8 35 8q34 0 34 -8v-179q21 27 50 32.5t57 5.5h44t44.5 -5.5t41 -19.5t34 -42t23 -72.5t8.5 -111.5q0 -93 -16.5 -144t-42 -74.5t-57.5 -28t-62 -4.5q-15 0 -31.5 0.5t-33 4t-32 12t-27.5 24.5v-33q0 -7 -34 -7q-35 0 -35 7v635zM267 68q25 0 46 1.5t36.5 17.5 t24 53.5t8.5 109.5q0 66 -7 102.5t-20 54t-31.5 21.5t-40.5 4h-53.5t-42.5 -15t-28 -53t-10 -114q0 -72 10 -109.5t26.5 -53.5t37.5 -17.5t44 -1.5z" />
<glyph unicode="c" d="M270 -1q-32 0 -66 3.5t-62 27t-46.5 75t-18.5 147.5q0 63 8 106t22.5 71t33.5 42.5t40.5 21t44.5 7.5t46 1q14 0 33 -0.5t38 -5t37.5 -14t33 -27.5t23.5 -45.5t9 -68.5q0 -5 -10.5 -6t-24.5 -1t-24.5 1t-10.5 6q0 35 -7.5 53.5t-21 27t-32.5 10t-43 1.5q-29 0 -52.5 -2 t-39.5 -18t-24.5 -53.5t-8.5 -107.5q0 -72 9.5 -110t26 -54t39 -17.5t47.5 -1.5q23 0 42.5 1t34 9t22.5 27.5t8 55.5q0 5 11.5 6t23.5 1t23.5 -1t11.5 -6q0 -62 -19.5 -95t-47 -48t-58 -17t-51.5 -2z" />
<glyph unicode="d" d="M253 -1q-31 0 -63.5 3.5t-59.5 27t-44 74.5t-17 146q0 92 15.5 142.5t40.5 74.5t56 29t61 5h32.5t34.5 -3t33.5 -11t28.5 -24v179q0 8 35 8t35 -8v-635q0 -5 -9 -6t-26 -1t-26 1t-9 6v33q-12 -15 -26.5 -23.5t-30 -12.5t-31.5 -4.5t-30 -0.5zM253 68q23 0 44 1.5 t37.5 17.5t26.5 53.5t10 109.5q0 65 -7 101.5t-20.5 54.5t-32 22t-41.5 4h-54t-41.5 -15t-27 -53t-9.5 -114q0 -72 8.5 -109t24 -53.5t36.5 -18t46 -1.5z" />
<glyph unicode="e" d="M256 0q-27 0 -59 3.5t-59.5 26.5t-45.5 73.5t-18 145.5q0 62 7.5 105t21 71t31.5 43.5t38 22.5t41.5 8.5t42.5 1.5q50 0 86 -8.5t59 -37.5t33.5 -86t10.5 -154h-300q2 -56 11.5 -86t24 -43.5t34 -15t40.5 -1.5h167q5 0 6 -11t1 -24t-1 -23.5t-6 -10.5h-166zM375 284 q-2 54 -9.5 84t-20.5 44t-31 17t-41 3q-29 0 -52 -1t-39 -13.5t-25.5 -43t-11.5 -90.5h230z" />
<glyph unicode="f" d="M194 382h-120q-7 0 -7 35t7 35h120v6q0 72 21.5 111t50.5 57t60 21t49 3h105q5 0 6 -12t1 -23t-1 -23t-6 -12h-104q-18 0 -38 -2t-36.5 -13.5t-27 -36t-10.5 -70.5v-6h169q7 0 7 -35t-7 -35h-169v-375q0 -5 -12 -6t-23 -1q-12 0 -23.5 1t-11.5 6v375z" />
<glyph unicode="g" d="M105 -182q-5 0 -6 11.5t-1 22.5t1 22.5t6 11.5h155q18 0 38 1.5t37 13t28 36t11 70.5v29q-11 -15 -25 -22.5t-29 -10.5t-30 -3.5t-30 -0.5q-21 0 -43 1t-43 7.5t-39 21t-31.5 42.5t-21.5 71.5t-8 107.5t8 107.5t21.5 71.5t32 42.5t39 21t42 7.5t42.5 1q15 0 30.5 -0.5 t30.5 -4t29 -12t25 -23.5v32q0 5 12 6t23 1q12 0 23 -1t11 -6v-486q0 -72 -21 -110.5t-50.5 -56t-60.5 -20t-51 -2.5h-155zM260 68q25 0 46 1.5t36 17.5t23.5 53.5t8.5 109.5q0 71 -9 108.5t-24.5 54t-36.5 18t-45 1.5q-26 0 -47.5 -1.5t-36.5 -18t-23.5 -53.5t-8.5 -109 t9 -109.5t24.5 -53.5t37 -17.5t46.5 -1.5z" />
<glyph unicode="h" d="M72 642q0 8 35 8q34 0 34 -8v-180q25 29 57.5 33.5t64.5 4.5q33 0 66 -4t59.5 -27.5t43.5 -75t17 -146.5v-240q0 -5 -11 -6t-23 -1t-23.5 1t-11.5 6v240q0 70 -8 107.5t-23 54.5t-36.5 19.5t-48.5 2.5t-49.5 -2.5t-38.5 -18t-25.5 -50.5t-9.5 -100v-253q0 -5 -8.5 -6 t-25.5 -1t-26 1t-9 6v635z" />
<glyph unicode="i" d="M254 581q-7 0 -7 34v16q1 8 2 13.5t5 5.5h110q7 0 7 -35v-16q-1 -8 -2 -13t-5 -5h-110zM130 0q-7 0 -7 34q0 35 7 35h173v362h-233q-7 0 -7 35q0 34 7 34h302v-431h73q5 0 6 -9t1 -26t-1 -25.5t-6 -8.5h-315z" />
<glyph unicode="j" d="M280 581q-7 0 -7 34q0 12 1 23.5t6 11.5h111q7 0 7 -35q0 -13 -1 -23.5t-6 -10.5h-111zM57 -184q-5 0 -6 12t-1 23t1 23t6 12h160q18 0 38 1.5t36.5 13t27.5 36t11 70.5v424h-221q-5 0 -6 8.5t-1 25.5t1 26t6 9h290v-493q0 -72 -21.5 -111t-51 -56.5t-60 -20.5t-48.5 -3 h-161z" />
<glyph unicode="k" d="M74 642q0 8 35 8q34 0 34 -8v-409q38 40 79 83t78 82t66 69.5t44 45.5q1 1 3 1q3 0 11 -6t16 -14t14.5 -15.5t6.5 -10.5q0 -1 -1 -2l-129 -135l165 -303q0 -1 0.5 -1.5t0.5 -1.5q0 -2 -7 -7.5t-16 -11t-18.5 -10t-14.5 -4.5t-21.5 29t-40 72.5t-49.5 93.5t-49 92 l-138 -146v-126q0 -5 -8.5 -6t-25.5 -1t-26 1t-9 6v635z" />
<glyph unicode="l" d="M360 0q-17 0 -36.5 1t-39.5 6.5t-39 18t-33.5 35t-23.5 57t-9 85.5v377h-115q-7 0 -7 35t7 35h184v-459q0 -41 8.5 -65t22 -36.5t30 -16t33.5 -4.5h124q6 0 7 -12t1 -23t-1 -22.5t-7 -11.5h-106z" />
<glyph unicode="m" d="M26 493q0 7 35 7t35 -7v-25q16 20 33.5 26t34.5 6q34 0 57.5 -11.5t40.5 -46.5q19 35 47.5 46.5t57.5 11.5q37 0 62 -13.5t40 -43.5t21.5 -77.5t6.5 -115.5v-243q0 -5 -11.5 -6t-23.5 -1t-23.5 1t-11.5 6v309q0 40 -6.5 63t-16 34.5t-20.5 14.5t-20 3q-17 0 -29.5 -5.5 t-21 -21t-13 -44.5t-4.5 -76v-277q0 -5 -11 -6t-24 -1q-12 0 -23 1t-11 6v276q0 39 -5 63t-12.5 38t-15.5 21t-13 11q-8 12 -24 12q-20 0 -32 -9.5t-18.5 -30.5t-9 -54t-2.5 -81v-75.5t0.5 -70t0.5 -58.5v-42q0 -7 -35 -7t-35 7v486z" />
<glyph unicode="n" d="M75 493q0 7 35 7q34 0 34 -7v-31q12 14 25.5 21.5t28 11.5t30 4.5t30.5 0.5q35 0 69 -3t61 -26t43.5 -75t16.5 -149v-240q0 -5 -11.5 -6t-22.5 -1q-13 0 -24 1t-11 6v240q0 70 -8.5 107.5t-23.5 54.5t-36 19.5t-47 2.5h-19q-24 0 -42.5 -5.5t-31.5 -23.5t-20 -53t-7 -94 v-248q0 -5 -8.5 -6t-25.5 -1t-26 1t-9 6v486z" />
<glyph unicode="o" d="M261 -1q-19 0 -40.5 1t-42 7.5t-39.5 21.5t-33 42.5t-22.5 71t-8.5 107.5q0 96 17.5 147t45 74t60.5 26t63 3q31 0 64 -3t59 -25.5t43 -74t17 -147.5q0 -95 -17 -146.5t-43.5 -74.5t-59 -26.5t-63.5 -3.5zM261 68q25 0 46 2t36 18.5t23.5 53.5t8.5 108q0 70 -8 107 t-23 53.5t-36 18.5t-47 2t-47.5 -2t-37 -18.5t-24 -53.5t-8.5 -107q0 -71 9.5 -108.5t26 -54t37.5 -18t44 -1.5z" />
<glyph unicode="p" d="M75 493q0 7 35 7q34 0 34 -7v-32q12 15 26.5 23t30 11.5t31.5 4t30 0.5q31 0 63.5 -3t59.5 -26t44.5 -74t17.5 -147t-17 -147t-43.5 -74t-59 -26.5t-64.5 -3.5q-15 0 -31 0.5t-31.5 4t-30 11.5t-26.5 23v-232q0 -7 -34 -7q-35 0 -35 7v687zM263 68q25 0 46 2t36.5 18.5 t24 53.5t8.5 108q0 70 -8.5 107t-23.5 53.5t-36.5 18.5t-47.5 2q-24 0 -45 -2t-37.5 -18t-26 -53.5t-9.5 -107.5q0 -71 9 -108.5t25 -54t38 -18t47 -1.5z" />
<glyph unicode="q" d="M72 250q0 96 17.5 147.5t44.5 74t60 25.5t63 3q14 0 30 -0.5t31.5 -4t30 -11.5t26.5 -23v32q0 7 35 7q34 0 34 -7v-687q0 -7 -34 -7q-35 0 -35 7v232q-12 -15 -26 -23t-30 -11.5t-32 -4t-31 -0.5q-32 0 -64.5 3.5t-59 26.5t-43.5 74.5t-17 146.5zM141 250q0 -72 8.5 -109 t24 -53.5t36.5 -18t47 -1.5q25 0 46.5 1.5t37 17.5t24.5 53.5t9 109.5t-9.5 109.5t-25.5 53t-37 17t-45 1.5q-26 0 -47.5 -1.5t-36.5 -17.5t-23.5 -53.5t-8.5 -108.5z" />
<glyph unicode="r" d="M99 493q0 7 35 7t35 -7v-31q21 27 50.5 32.5t58.5 5.5q31 0 65.5 -1.5t63 -16.5t47 -49.5t18.5 -99.5q0 -7 -34 -7q-35 0 -35 7q0 37 -7 57t-21.5 29t-35.5 10.5t-48 1.5h-15q-25 0 -45 -4t-33.5 -21.5t-21 -53t-7.5 -98.5v-247q0 -7 -35 -7t-35 7v486z" />
<glyph unicode="s" d="M72 143q0 5 10 6.5t25 1.5t24.5 -1.5t9.5 -6.5q0 -28 8 -43t23 -22t35.5 -8.5t45.5 -1.5q29 0 52.5 1.5t40 8t25 21t8.5 41.5q0 21 -9 35t-25.5 23.5t-41 16.5t-54.5 14q-29 7 -59 15.5t-55 24t-40.5 40t-15.5 62.5q0 49 19 75t46.5 38t59.5 14t58 2q25 0 56 -3t58 -16.5 t45.5 -42t18.5 -80.5q0 -5 -9.5 -6t-24.5 -1q-16 0 -25.5 1t-9.5 6q0 26 -7 41t-21.5 22t-36 8.5t-49.5 1.5q-27 0 -47.5 -1t-34 -7t-20 -18t-6.5 -34q0 -18 9.5 -30.5t26 -20.5t39 -14.5t48.5 -12.5q25 -6 56 -14.5t57.5 -25t44.5 -44t18 -71.5q0 -53 -21 -81.5t-51 -41 t-63.5 -14.5t-58.5 -2q-26 0 -57.5 2.5t-59.5 16t-46.5 43t-18.5 82.5z" />
<glyph unicode="t" d="M353 0q-24 0 -55.5 3t-59.5 21t-47 56.5t-19 110.5v195h-128q-7 0 -7 35q0 34 7 34h128v187q0 5 11 6.5t23 1.5t23.5 -1.5t11.5 -6.5v-187h172q8 0 8 -34q0 -35 -8 -35h-172v-195q0 -46 10.5 -70.5t27 -36t36.5 -13.5t38 -2h106q5 0 6 -12t1 -23t-1 -22.5t-6 -11.5h-106z " />
<glyph unicode="u" d="M259 0q-35 0 -69 3.5t-60 27t-42 75t-16 146.5v241q0 5 11.5 6t23.5 1t23 -1t11 -6v-240q0 -69 7.5 -106.5t22 -55t35 -20.5t47.5 -3q28 0 51.5 2t40.5 18t26.5 51.5t9.5 103.5v250q0 7 34 7q35 0 35 -7v-486q0 -5 -9 -6t-26 -1t-25.5 1t-8.5 6v30q-12 -14 -27 -21.5 t-31 -11t-32.5 -4t-31.5 -0.5z" />
<glyph unicode="v" d="M238 0q-7 0 -10 0.5t-5.5 3.5t-6 8.5l-10.5 16.5q-6 12 -18.5 40t-28.5 64.5t-32.5 78t-30.5 80.5t-23 72.5t-9 53.5v75q0 7 35 7q34 0 34 -7v-76q0 -16 8.5 -45.5t21 -64t27.5 -71.5t28.5 -68.5t23 -53t12.5 -26.5q2 2 12.5 23t25 52.5t31.5 69.5t31 74t23 66t9 45v75 q0 7 35 7q34 0 34 -7v-76q0 -20 -10.5 -54.5t-26.5 -76t-34.5 -85.5t-36 -81t-30.5 -64t-17 -34q-10 -17 -15 -19.5t-14 -2.5h-33z" />
<glyph unicode="w" d="M142 0q-10 0 -15.5 2.5t-13.5 19.5q-3 7 -10.5 31.5t-17 59t-19.5 76.5t-18 84.5t-13.5 82.5t-5.5 71v66q0 5 9.5 6t25.5 1q15 0 24.5 -1t9.5 -6v-66q0 -37 8 -86.5t18.5 -97t20.5 -85.5t15 -53h2q13 32 24.5 65.5t20.5 61.5q11 32 19 62h69q8 -29 19 -62q9 -28 20.5 -62 t25.5 -66q4 13 14.5 51t21.5 86.5t19 99t8 87.5v65q0 7 35 7q34 0 34 -7v-66q0 -31 -5.5 -71t-13.5 -82.5t-18 -84.5t-19.5 -76.5t-17 -59t-10.5 -31.5q-8 -17 -13.5 -19.5t-15.5 -2.5h-30q-12 0 -23.5 17t-22 44t-21 60.5t-20.5 66.5q-15 -40 -27 -74.5t-22.5 -59.5 t-20 -39.5t-19.5 -14.5h-31z" />
<glyph unicode="x" d="M89 4q-28 18 -24 26l9 12.5t22.5 32.5t30.5 44.5t33.5 49t31.5 47l25 37.5q-9 15 -24 36.5t-31 45.5t-32.5 48t-30 43t-22 31l-8.5 12q-4 7 24 27q29 21 33 14q0 -1 15.5 -23.5t37 -54t44 -65t36.5 -54.5q14 21 36.5 54.5t44.5 65t37.5 54.5l15.5 23q4 6 33 -14 q28 -20 24 -26l-8.5 -12t-22 -31.5t-30 -43.5t-32.5 -48t-31 -45.5t-24 -36.5l25 -37.5t31.5 -47t33.5 -49t30.5 -44.5t22.5 -32.5l9 -12.5q5 -7 -24 -26q-28 -21 -32 -15q0 1 -16.5 24.5t-39 56.5t-46 67t-37.5 56q-14 -22 -37 -56t-45.5 -67t-39 -56.5t-16.5 -24.5 q-4 -7 -32 15z" />
<glyph unicode="y" d="M107 -183q-5 0 -6 12t-1 23t1 22.5t6 11.5h159q18 0 38.5 2t37.5 13t28 36t11 70v30q-24 -29 -56 -33.5t-63 -4.5q-35 0 -68.5 4t-59 27.5t-41 75t-15.5 146.5v241q0 5 11 6t23 1t23.5 -1t11.5 -6v-240q0 -70 7.5 -107.5t22 -55t35.5 -20t49 -2.5q32 0 55 5.5t37 23.5 t21 53t7 94v249q0 5 11.5 6t23.5 1t23 -1t11 -6v-486q0 -72 -21 -110.5t-50.5 -56t-60.5 -20.5t-51 -3h-160z" />
<glyph unicode="z" d="M66 61q0 12 16 36.5t39.5 53t49 57.5t45.5 51q22 25 46 52.5t43.5 51.5t32.5 41t13 21v6h-274q-5 0 -6 9t-1 25t1 25.5t6 9.5h365v-62q0 -11 -13.5 -32.5t-34.5 -48t-46 -55t-47 -53.5q-17 -19 -41.5 -46.5t-47.5 -54.5t-39 -48t-16 -25v-6h296q5 0 6 -9.5t1 -25.5 t-1 -25t-6 -9h-387v61z" />
<glyph unicode="{" d="M440 -64q-22 0 -47 1t-50 8.5t-47.5 23.5t-40 45.5t-28 75.5t-10.5 114q0 27 -1.5 47t-12 32.5t-32.5 19t-63 6.5h-37q-7 0 -7 34t7 34h37q41 0 63 6.5t32.5 19t12 32t1.5 46.5q0 101 22.5 156t56 80t72.5 29t72 4q7 0 7 -35q0 -34 -7 -34q-26 0 -53 -2.5t-49.5 -20.5 t-37 -59t-14.5 -118q0 -25 -1 -45t-6 -36.5t-16 -30.5t-31 -26q20 -12 31 -26t16 -31t6 -37t1 -45q0 -77 14.5 -117.5t37 -58.5t49.5 -20.5t53 -2.5q7 0 7 -35q0 -34 -7 -34z" />
<glyph unicode="|" d="M225 643q0 7 35 7q34 0 34 -7v-636q0 -5 -8.5 -6t-25.5 -1t-26 1t-9 6v636z" />
<glyph unicode="}" d="M79 -64q-7 0 -7 34q0 35 7 35q25 0 52.5 2.5t50 20.5t37 58.5t14.5 117.5q0 25 1 45t6 37t15.5 31t30.5 26q-20 12 -30.5 26t-15.5 30.5t-6 36.5t-1 45q0 77 -14.5 118t-37 59t-50 20.5t-52.5 2.5q-7 0 -7 34q0 35 7 35q33 0 71.5 -4t72.5 -29t56.5 -80t22.5 -156 q0 -27 1.5 -46.5t11.5 -32t32.5 -19t63.5 -6.5h36q5 0 6 -8.5t1 -25.5t-1 -25.5t-6 -8.5h-36q-41 0 -63.5 -6.5t-32.5 -19t-11.5 -32.5t-1.5 -47q0 -67 -10.5 -113.5t-28 -76t-40.5 -45.5t-47.5 -23.5t-49.5 -8.5t-47 -1z" />
<glyph unicode="~" d="M114 272q-2 -2 -4 -2q-3 0 -11.5 5t-17.5 12t-16 14t-7 10q0 4 10 15.5t28 23.5t41.5 21.5t50.5 9.5t46.5 -6.5t35.5 -14.5t30.5 -14.5t31.5 -6.5q18 0 32 6.5t24 14.5t15.5 14.5t6.5 6.5q3 0 11.5 -5t17.5 -12t16 -14.5t7 -11.5q0 4 -7 -6t-23 -23.5t-40.5 -26 t-58.5 -12.5q-26 0 -44.5 6.5t-34.5 14.5t-31 14.5t-33 6.5q-16 0 -29.5 -5.5t-23.5 -12.5t-16 -13.5t-7 -8.5z" />
<glyph unicode="&#xa0;" />
<glyph unicode="&#xa1;" d="M225 495q0 5 9 6t26 1t25.5 -1t8.5 -6v-488q0 -7 -34 -7q-35 0 -35 7v488zM225 643q0 7 34 7q35 0 35 -7v-74q0 -7 -35 -7q-34 0 -34 7v74z" />
<glyph unicode="&#xa2;" d="M238 1q-29 1 -57 9.5t-50 34t-36 74.5t-14 133q0 82 13.5 130.5t35 74t50 33.5t58.5 10v44q0 5 9 6t26 1q34 0 34 -7v-44q23 -2 48 -7.5t46 -22t34.5 -47.5t13.5 -82q0 -4 -5 -5l-10 -2q-6 0 -13.5 0.5t-13.5 2.5q0 27 -7.5 38.5t-17.5 15.5t-19 4.5t-12 4.5 q-7 17 -17 23t-27 8v-361q16 2 26.5 8t16.5 23q13 8 29.5 21.5t27.5 42.5q3 2 7.5 2h9.5q8 0 16.5 -0.5t8.5 -5.5q0 -51 -13.5 -82t-34.5 -48t-46 -23t-48 -7v-44q0 -5 -8.5 -6t-25.5 -1t-26 1t-9 6v44zM238 430q-20 -2 -36 -8t-27.5 -24t-18 -53t-6.5 -94q0 -61 7.5 -96 t19.5 -53t28 -23.5t33 -7.5v359z" />
<glyph unicode="&#xa4;" d="M79 8q0 18 1 37.5t6 39t16.5 37t31.5 30.5q-20 13 -31.5 30t-16.5 36t-6 39t-1 39q0 18 1 38t6 39.5t16.5 37t31.5 31.5q-20 12 -31.5 29.5t-16.5 37t-6 40t-1 39.5q0 7 35 7q34 0 34 -7q0 -25 1.5 -45t12 -34.5t32.5 -22.5t64 -8t64.5 8t32.5 22.5t11.5 34.5t1.5 45 q0 7 35 7q34 0 34 -7q0 -20 -1 -40t-5.5 -39t-15 -36t-29.5 -30q20 -13 30.5 -30t15 -36.5t5 -40.5t0.5 -40t-1 -39t-5.5 -38.5t-15 -35t-29.5 -29.5q35 -25 43 -62.5t8 -83.5q0 -8 -34 -8q-35 0 -35 8q0 25 -1.5 45t-12 34.5t-33 22.5t-63.5 8q-42 0 -64.5 -9t-32.5 -24.5 t-11.5 -35.5t-1.5 -41q0 -8 -34 -8q-35 0 -35 8zM258 188q42 0 64.5 7.5t32.5 21.5t11.5 34t1.5 45t-1.5 46t-12 35t-33 22t-63.5 8q-42 0 -64.5 -9t-32.5 -24.5t-11 -35.5t-1 -42q0 -24 1.5 -44t11.5 -34.5t32 -22t64 -7.5z" />
<glyph unicode="&#xa5;" d="M227 130h-125q-7 0 -7 35q0 34 7 34h125v88h-125q-7 0 -7 35q0 34 7 34h99l-169 263q-4 6 25 25t33 13l171 -267l171 267q4 7 33 -13q28 -19 25 -25l-9.5 -14.5t-24 -37.5t-33 -51.5t-37 -57.5t-36 -56t-29.5 -46h97q7 0 7 -34q0 -35 -7 -35h-122v-88h122q7 0 7 -34 q0 -35 -7 -35h-122v-123q0 -7 -35 -7q-34 0 -34 7v123z" />
<glyph unicode="&#xa6;" d="M225 293q0 7 34 7q35 0 35 -7v-286q0 -7 -35 -7q-34 0 -34 7v286zM225 643q0 7 34 7q35 0 35 -7v-286q0 -7 -35 -7q-34 0 -34 7v286z" />
<glyph unicode="&#xa7;" d="M75 145q0 5 9.5 6t25.5 1q15 0 24.5 -1t9.5 -6q0 -28 7.5 -43.5t22 -22.5t34.5 -8.5t45 -1.5q29 0 52 1.5t39 8t24.5 21t8.5 41.5q0 34 -26.5 53t-84.5 32q-30 5 -62.5 14t-59.5 26t-44.5 43t-17.5 65q0 26 5.5 44.5t14.5 32.5q-9 13 -14.5 30t-5.5 38q0 49 18.5 75.5 t45.5 39t58.5 14.5t57.5 2t56.5 -3t57 -16.5t44.5 -42t18 -80.5q0 -5 -9.5 -6t-25.5 -1q-15 0 -24.5 1t-9.5 6q0 26 -6.5 40.5t-20.5 22t-35 9t-50 1.5q-27 0 -46.5 -1.5t-33 -7.5t-20 -18.5t-6.5 -33.5q0 -22 24 -42t83 -33q24 -7 56.5 -15t61.5 -24t49.5 -44.5t20.5 -76.5 q0 -24 -4 -42.5t-12 -32.5q16 -30 16 -70q0 -52 -20 -80.5t-49.5 -41.5t-62 -15.5t-57.5 -2.5q-26 0 -57.5 2.5t-59.5 16t-46.5 43t-18.5 83.5zM373 260q1 5 2 11t1 13q0 39 -28 56.5t-81 30.5q-29 10 -56.5 16t-51.5 21q-5 -8 -6 -17t-1 -21q2 -31 30.5 -45t74.5 -25l24 -6 q21 -5 46 -13t46 -22v1z" />
<glyph unicode="&#xa8;" horiz-adv-x="510" d="M290 580q-8 0 -8 35t8 35h105q5 0 6 -9t1 -26t-1 -26t-6 -9h-105zM115 580q-8 0 -8 35t8 35h105q7 0 7 -35t-7 -35h-105z" />
<glyph unicode="&#xab;" d="M223 326l21 21l37.5 37.5l45.5 45.5t44.5 44t33.5 33.5t14 13.5q1 1 3 1q3 0 10.5 -6.5t16 -14.5t14.5 -15.5t6 -10.5q0 -2 -1 -3l-148 -146l95.5 -95.5t52.5 -51.5q1 -1 1 -3q0 -3 -6.5 -10.5t-14.5 -16t-15.5 -15t-10.5 -6.5q-1 0 -3 2zM46 326l21 21l37.5 37.5 l45.5 45.5t44.5 44t33.5 33.5t14 13.5q1 1 3 1q3 0 10.5 -6.5t16 -14.5t14.5 -15.5t6 -10.5q0 -2 -1 -3l-148 -146l95.5 -95.5t52.5 -51.5q1 -1 1 -3q0 -3 -6.5 -10.5t-14.5 -16t-15.5 -15t-10.5 -6.5q-1 0 -3 2z" />
<glyph unicode="&#xad;" d="M102 291q-7 0 -7 35q0 34 7 34h316q7 0 7 -34q0 -35 -7 -35h-316z" />
<glyph unicode="&#xb0;" d="M260 463q-22 0 -41 8.5t-32.5 22.5t-21 32.5t-7.5 38.5t7.5 38.5t21 32.5t32.5 22.5t41 8.5t40.5 -8.5t32 -22.5t21 -32.5t7.5 -38.5t-7.5 -38.5t-21 -32.5t-32 -22.5t-40.5 -8.5zM259 525q19 0 30 12.5t11 27.5q0 16 -11.5 28t-29.5 12q-17 0 -28 -12t-11 -28 q0 -15 11 -27.5t28 -12.5z" />
<glyph unicode="&#xb1;" d="M227 321h-124q-7 0 -7 35v16q1 8 2 13t5 5h124v119q0 7 34 7q12 0 23.5 -1t11.5 -6v-119h122q8 0 8 -34q0 -13 -1 -24t-7 -11h-122v-118q0 -5 -9 -6t-26 -1h-16q-8 1 -13 1.5t-5 5.5v118zM103 90q-7 0 -7 35q0 34 7 34h316q7 0 7 -34q0 -35 -7 -35h-316z" />
<glyph unicode="&#xb4;" d="M363 735h1q2 0 6.5 -7t9 -17t8 -19.5t3.5 -15.5q0 -5 -2 -6l-231 -93h-1q-2 0 -6.5 7t-9 16.5t-8.5 19.5t-4 16q0 3 3 5z" />
<glyph unicode="&#xb5;" d="M77 493q0 7 35 7q34 0 34 -7v-248q0 -65 8.5 -101t23.5 -52.5t36 -19.5t47 -3q27 0 49 2t37.5 18.5t24.5 54.5t9 109v240q0 5 11 6t24 1q11 0 22.5 -1t11.5 -6v-240q0 -95 -16 -146t-41.5 -75t-58 -28t-66.5 -4q-15 0 -31.5 0.5t-32.5 4t-31 11t-27 22.5v-202 q0 -7 -34 -7q-35 0 -35 7v657z" />
<glyph unicode="&#xb7;" d="M222 292q-7 0 -7 35q0 14 1 24t6 10h74q7 0 7 -34q0 -35 -7 -35h-74z" />
<glyph unicode="&#xb8;" horiz-adv-x="510" d="M230 -174q-5 0 -6 7.5t-1 18.5q0 10 1 17.5t6 7.5q40 0 63.5 2t35 5.5t14.5 8.5t3 12t-1 11t-10 6.5t-29 3.5t-57 1v73h68v-22q19 0 36.5 -2.5t30.5 -10t20.5 -22.5t7.5 -39q0 -21 -4.5 -36t-22.5 -24t-54.5 -13.5t-100.5 -4.5z" />
<glyph unicode="&#xbb;" d="M230 179q17 17 52 51.5t95 95.5l-147 146q-1 1 -1 3q0 3 6 10.5t14 16t15.5 14.5t10.5 6t15.5 -11t30.5 -29l40 -40t43 -44t40 -41l31 -31l-196 -196q-2 -2 -3 -2q-3 0 -11 6.5t-16 14.5t-14 16t-6 11q0 2 1 3zM53 179q17 17 52 51.5t95 95.5l-147 146q-1 1 -1 3 q0 3 6 10.5t14 16t15.5 14.5t10.5 6q4 0 29 -24t57 -56.5l64 -65t50 -50.5l-196 -196q-2 -2 -3 -2q-3 0 -11 6.5t-16 14.5t-14 16t-6 11q0 2 1 3z" />
<glyph unicode="&#xbf;" d="M301 570q0 -7 -35 -7t-35 7v73q0 5 9 6t26 1t26 -1t9 -6v-73zM301 491q-1 -42 -13.5 -73.5t-31 -57t-40.5 -47t-40.5 -43.5t-31 -47t-12.5 -58q0 -36 9.5 -55t24.5 -28t34.5 -10.5t39.5 -1.5q17 0 36 2t34.5 12.5t26 32.5t10.5 62q0 5 10.5 6t24.5 1q13 0 23.5 -1 t10.5 -6q0 -66 -20 -102t-47.5 -53t-56.5 -20t-47 -3q-21 0 -52 1.5t-60 16.5t-49.5 48.5t-20.5 97.5q0 43 12.5 74.5t31 56.5t40 46t40.5 43t31.5 47.5t12.5 59.5v5q0 5 11 6t24 1t24 -1t11 -6v-6z" />
<glyph unicode="&#xc0;" d="M60 97q0 17 5.5 54t21 99t45 151.5t77.5 212.5q5 13 9 20.5t8 11t9 4t11 0.5h31q12 0 19 -4.5t17 -31.5l12 -33q45 -116 71.5 -199t41 -140.5t18.5 -92t4 -52.5v-90q0 -5 -10.5 -6t-24.5 -1t-24 1t-10 6v90q0 15 -2.5 32.5t-5.5 33.5l-8 36h-230q-4 -21 -8 -39 q-3 -16 -5.5 -33.5t-2.5 -29.5v-90q0 -5 -10.5 -6t-24.5 -1t-24 1t-10 6v90zM358 268q-13 48 -28.5 97t-29.5 89.5t-24.5 68t-13.5 33.5q-3 -3 -13.5 -29.5t-25 -67t-30.5 -91t-30 -100.5h195zM362 727q-9 4 -29.5 12t-46 18t-53.5 21.5t-51 21t-38 17t-15 9.5q0 6 3.5 15.5 t8 19.5t9 17t6.5 7h2q8 -4 28.5 -12t46 -18t53.5 -21.5t51 -21t38 -17t15 -9.5q0 -6 -3.5 -15.5t-8 -19.5t-9 -17t-6.5 -7h-1z" />
<glyph unicode="&#xc1;" d="M60 97q0 17 5.5 54t21 99t45 151.5t77.5 212.5q5 13 9 20.5t8 11t9 4t11 0.5h31q12 0 19 -4.5t17 -31.5l12 -33q45 -116 71.5 -199t41 -140.5t18.5 -92t4 -52.5v-90q0 -5 -10.5 -6t-24.5 -1t-24 1t-10 6v90q0 15 -2.5 32.5t-5.5 33.5l-8 36h-230q-4 -21 -8 -39 q-3 -16 -5.5 -33.5t-2.5 -29.5v-90q0 -5 -10.5 -6t-24.5 -1t-24 1t-10 6v90zM358 268q-13 48 -28.5 97t-29.5 89.5t-24.5 68t-13.5 33.5q-3 -3 -13.5 -29.5t-25 -67t-30.5 -91t-30 -100.5h195zM132 791q15 6 47.5 19.5t68 27.5t67.5 27.5t47 19.5h1q2 0 6.5 -7t9 -17 t8 -19.5t3.5 -15.5q0 -2 -15 -9.5t-38 -17t-50.5 -21t-53.5 -21.5t-46.5 -18.5t-28.5 -11.5h-2q-2 0 -6.5 7t-9 17t-8 19.5t-3.5 15.5q0 3 3 5z" />
<glyph unicode="&#xc2;" d="M60 97q0 17 5.5 54t21 99t45 151.5t77.5 212.5q5 13 9 20.5t8 11t9 4t11 0.5h31q12 0 19 -4.5t17 -31.5l12 -33q45 -116 71.5 -199t41 -140.5t18.5 -92t4 -52.5v-90q0 -5 -10.5 -6t-24.5 -1t-24 1t-10 6v90q0 15 -2.5 32.5t-5.5 33.5l-8 36h-230q-4 -21 -8 -39 q-3 -16 -5.5 -33.5t-2.5 -29.5v-90q0 -5 -10.5 -6t-24.5 -1t-24 1t-10 6v90zM358 268q-13 48 -28.5 97t-29.5 89.5t-24.5 68t-13.5 33.5q-3 -3 -13.5 -29.5t-25 -67t-30.5 -91t-30 -100.5h195zM414 709q-7 4 -28.5 17t-45 27.5t-41.5 26.5t-18 14q0 1 4 10.5t10 19.5 t12.5 18.5t10.5 8.5q1 0 1 -0.5t1 -0.5l132 -82q2 -2 2 -3q-1 -4 -4 -12t-11 -19l-9 -13q-5 -5 -8.5 -9t-5.5 -4q-1 0 -2 1zM106 709q-1 -1 -2 -1q-3 1 -9 7t-14 19l-8 14q-7 12 -7 16q0 2 2 4l132 82h2q7 0 22 -25l8 -14q7 -12 7 -16q0 -3 -18.5 -15t-41.5 -26t-44.5 -27.5 t-28.5 -17.5z" />
<glyph unicode="&#xc3;" d="M60 97q0 17 5.5 54t21 99t45 151.5t77.5 212.5q5 13 9 20.5t8 11t9 4t11 0.5h31q12 0 19 -4.5t17 -31.5l12 -33q45 -116 71.5 -199t41 -140.5t18.5 -92t4 -52.5v-90q0 -5 -10.5 -6t-24.5 -1t-24 1t-10 6v90q0 15 -2.5 32.5t-5.5 33.5l-8 36h-230q-4 -21 -8 -39 q-3 -16 -5.5 -33.5t-2.5 -29.5v-90q0 -5 -10.5 -6t-24.5 -1t-24 1t-10 6v90zM358 268q-13 48 -28.5 97t-29.5 89.5t-24.5 68t-13.5 33.5q-3 -3 -13.5 -29.5t-25 -67t-30.5 -91t-30 -100.5h195zM114 716q-2 -2 -4 -2q-3 0 -11.5 5t-17.5 12t-16 14t-7 10q0 4 10 15.5t28 23.5 t41.5 21.5t50.5 9.5t46.5 -6.5t35.5 -14.5t30.5 -14.5t31.5 -6.5q18 0 32 6.5t24 14.5t15.5 14.5t6.5 6.5q3 0 11.5 -5t17.5 -12t16 -14.5t7 -11.5q0 4 -7 -6t-23 -23.5t-40.5 -26t-58.5 -12.5q-26 0 -44.5 6.5t-34.5 14.5t-31 14.5t-33 6.5q-16 0 -29.5 -5.5t-23.5 -12.5 t-16 -13.5t-7 -8.5z" />
<glyph unicode="&#xc4;" d="M60 97q0 17 5.5 54t21 99t45 151.5t77.5 212.5q5 13 9 20.5t8 11t9 4t11 0.5h31q12 0 19 -4.5t17 -31.5l12 -33q45 -116 71.5 -199t41 -140.5t18.5 -92t4 -52.5v-90q0 -5 -10.5 -6t-24.5 -1t-24 1t-10 6v90q0 15 -2.5 32.5t-5.5 33.5l-8 36h-230q-4 -21 -8 -39 q-3 -16 -5.5 -33.5t-2.5 -29.5v-90q0 -5 -10.5 -6t-24.5 -1t-24 1t-10 6v90zM358 268q-13 48 -28.5 97t-29.5 89.5t-24.5 68t-13.5 33.5q-3 -3 -13.5 -29.5t-25 -67t-30.5 -91t-30 -100.5h195zM120 730q-8 0 -8 35q0 12 1 23.5t7 11.5h105q7 0 7 -35q0 -12 -1 -23.5 t-6 -11.5h-105zM295 730q-8 0 -8 35q0 12 1.5 23.5t6.5 11.5h105q5 0 6 -9t1 -26v-16q-1 -8 -1.5 -13.5t-5.5 -5.5h-105z" />
<glyph unicode="&#xc5;" d="M60 97q0 34 11 89t31.5 124t48.5 149.5t61 166.5q-25 13 -39.5 37t-14.5 52q0 18 7.5 36.5t21 33t32 23.5t41.5 9q22 0 40.5 -8.5t32 -22.5t21 -32.5t7.5 -38.5q0 -27 -14 -51t-38 -37q49 -124 79 -215.5t46 -155.5t21 -102.5t5 -56.5v-90q0 -5 -10.5 -6t-24.5 -1t-24 1 t-10 6v90q0 15 -2.5 32.5t-5.5 33.5l-8 36h-230q-4 -21 -8 -39q-3 -16 -5.5 -33.5t-2.5 -29.5v-90q0 -5 -10.5 -6t-24.5 -1t-24 1t-10 6v90zM358 268q-13 48 -28.5 97t-29.5 89.5t-24.5 68t-13.5 33.5q-3 -3 -13.5 -29.5t-25 -67t-30.5 -91t-30 -100.5h195zM259 675 q19 0 30 12.5t11 27.5q0 16 -11.5 28t-29.5 12q-17 0 -28 -12t-11 -28q0 -15 11 -27.5t28 -12.5z" />
<glyph unicode="&#xc6;" d="M16 7q0 14 -0.5 37.5t-0.5 52.5q0 17 4 52t17.5 93t40 142t70.5 200q5 13 9 24.5t9.5 20.5t14 14.5t23.5 5.5h299q7 0 7 -34q0 -17 -1 -26.5t-6 -9.5h-226q26 -65 41.5 -119t29.5 -100h121q7 0 7 -34q0 -35 -7 -35h-100q15 -53 22.5 -88.5t10.5 -60t3 -41v-32.5h98 q7 0 7 -34q0 -35 -7 -35h-133q-14 0 -24.5 1t-10.5 6v59q0 14 -1.5 36.5t-4 43.5t-5 36.5t-4.5 16.5h-218l-2.5 -11.5t-5.5 -27.5t-5.5 -33.5t-2.5 -29.5v-90q0 -5 -6.5 -6t-17.5 -1q-17 0 -31 0.5t-14 6.5zM302 268q-12 49 -27 98t-28 89.5t-22.5 67.5t-11.5 33h-3 q-3 -6 -12.5 -33t-22.5 -67t-28 -89t-28 -99h183z" />
<glyph unicode="&#xc7;" d="M209 -171q-5 0 -6 7.5t-1 18.5q0 10 1 17.5t6 7.5q41 0 64 2t34.5 5.5t14.5 8.5t3 12t-1 11t-10 6.5t-29 3.5t-57 1v72q-31 3 -63 15.5t-58 46.5t-42.5 96.5t-16.5 164.5q0 80 10 135t27.5 91.5t40.5 56t48 29t51 11.5t50 2q13 0 33 -1t42.5 -6.5t44.5 -17.5t39.5 -34 t28.5 -56t11 -84q0 -5 -9.5 -6t-24.5 -1t-25 1t-10 6q0 49 -12.5 75.5t-31.5 38.5t-41.5 14t-41.5 2q-32 0 -60.5 -3.5t-51 -27t-35.5 -75.5t-13 -150t13.5 -150t35 -75.5t48.5 -27t53 -3.5q24 0 48.5 2t44 13.5t31.5 36.5t12 71q0 5 9.5 6t25.5 1q15 0 24.5 -1t9.5 -6 q0 -63 -18 -100.5t-45 -57.5t-57.5 -26.5t-55.5 -7.5v-19q19 0 36.5 -2.5t30.5 -10t20.5 -22.5t7.5 -39q0 -21 -4.5 -36t-22.5 -24t-55 -13.5t-101 -4.5z" />
<glyph unicode="&#xc8;" d="M79 617v33h372q7 0 7 -35t-7 -35h-302v-219h267q7 0 7 -35q0 -34 -7 -34h-267v-223h302q7 0 7 -34q0 -35 -7 -35h-372v617zM362 727q-9 4 -29.5 12t-46 18t-53.5 21.5t-51 21t-38 17t-15 9.5q0 6 3.5 15.5t8 19.5t9 17t6.5 7h2q8 -4 28.5 -12t46 -18t53.5 -21.5t51 -21 t38 -17t15 -9.5q0 -6 -3.5 -15.5t-8 -19.5t-9 -17t-6.5 -7h-1z" />
<glyph unicode="&#xc9;" d="M79 617v33h372q7 0 7 -35t-7 -35h-302v-219h267q7 0 7 -35q0 -34 -7 -34h-267v-223h302q7 0 7 -34q0 -35 -7 -35h-372v617zM132 791q15 6 47.5 19.5t68 27.5t67.5 27.5t47 19.5h1q2 0 6.5 -7t9 -17t8 -19.5t3.5 -15.5q0 -2 -15 -9.5t-38 -17t-50.5 -21t-53.5 -21.5 t-46.5 -18.5t-28.5 -11.5h-2q-2 0 -6.5 7t-9 17t-8 19.5t-3.5 15.5q0 3 3 5z" />
<glyph unicode="&#xca;" d="M79 617v33h372q7 0 7 -35t-7 -35h-302v-219h267q7 0 7 -35q0 -34 -7 -34h-267v-223h302q7 0 7 -34q0 -35 -7 -35h-372v617zM414 709q-7 4 -28.5 17t-45 27.5t-41.5 26.5t-18 14q0 1 4 10.5t10 19.5t12.5 18.5t10.5 8.5q1 0 1 -0.5t1 -0.5l132 -82q2 -2 2 -3q-1 -4 -4 -12 t-11 -19l-9 -13q-5 -5 -8.5 -9t-5.5 -4q-1 0 -2 1zM106 709q-1 -1 -2 -1q-3 1 -9 7t-14 19l-8 14q-7 12 -7 16q0 2 2 4l132 82h2q7 0 22 -25l8 -14q7 -12 7 -16q0 -3 -18.5 -15t-41.5 -26t-44.5 -27.5t-28.5 -17.5z" />
<glyph unicode="&#xcb;" d="M79 617v33h372q7 0 7 -35t-7 -35h-302v-219h267q7 0 7 -35q0 -34 -7 -34h-267v-223h302q7 0 7 -34q0 -35 -7 -35h-372v617zM120 730q-8 0 -8 35q0 12 1 23.5t7 11.5h105q7 0 7 -35q0 -12 -1 -23.5t-6 -11.5h-105zM295 730q-8 0 -8 35q0 12 1.5 23.5t6.5 11.5h105 q5 0 6 -9t1 -26v-16q-1 -8 -1.5 -13.5t-5.5 -5.5h-105z" />
<glyph unicode="&#xcc;" d="M80 0q-7 0 -7 34q0 35 7 35h148v512h-148q-7 0 -7 34q0 35 7 35h365q7 0 7 -35q0 -34 -7 -34h-148v-512h148q7 0 7 -35q0 -34 -7 -34h-365zM362 727q-9 4 -29.5 12t-46 18t-53.5 21.5t-51 21t-38 17t-15 9.5q0 6 3.5 15.5t8 19.5t9 17t6.5 7h2q8 -4 28.5 -12t46 -18 t53.5 -21.5t51 -21t38 -17t15 -9.5q0 -6 -3.5 -15.5t-8 -19.5t-9 -17t-6.5 -7h-1z" />
<glyph unicode="&#xcd;" d="M80 0q-7 0 -7 34q0 35 7 35h148v512h-148q-7 0 -7 34q0 35 7 35h365q7 0 7 -35q0 -34 -7 -34h-148v-512h148q7 0 7 -35q0 -34 -7 -34h-365zM132 791q15 6 47.5 19.5t68 27.5t67.5 27.5t47 19.5h1q2 0 6.5 -7t9 -17t8 -19.5t3.5 -15.5q0 -2 -15 -9.5t-38 -17t-50.5 -21 t-53.5 -21.5t-46.5 -18.5t-28.5 -11.5h-2q-2 0 -6.5 7t-9 17t-8 19.5t-3.5 15.5q0 3 3 5z" />
<glyph unicode="&#xce;" d="M80 0q-7 0 -7 34q0 35 7 35h148v512h-148q-7 0 -7 34q0 35 7 35h365q7 0 7 -35q0 -34 -7 -34h-148v-512h148q7 0 7 -35q0 -34 -7 -34h-365zM414 709q-7 4 -28.5 17t-45 27.5t-41.5 26.5t-18 14q0 1 4 10.5t10 19.5t12.5 18.5t10.5 8.5q1 0 1 -0.5t1 -0.5l132 -82 q2 -2 2 -3q-1 -4 -4 -12t-11 -19l-9 -13q-5 -5 -8.5 -9t-5.5 -4q-1 0 -2 1zM106 709q-1 -1 -2 -1q-3 1 -9 7t-14 19l-8 14q-7 12 -7 16q0 2 2 4l132 82h2q7 0 22 -25l8 -14q7 -12 7 -16q0 -3 -18.5 -15t-41.5 -26t-44.5 -27.5t-28.5 -17.5z" />
<glyph unicode="&#xcf;" d="M80 0q-7 0 -7 34q0 35 7 35h148v512h-148q-7 0 -7 34q0 35 7 35h365q7 0 7 -35q0 -34 -7 -34h-148v-512h148q7 0 7 -35q0 -34 -7 -34h-365zM120 730q-8 0 -8 35q0 12 1 23.5t7 11.5h105q7 0 7 -35q0 -12 -1 -23.5t-6 -11.5h-105zM295 730q-8 0 -8 35q0 12 1.5 23.5 t6.5 11.5h105q5 0 6 -9t1 -26v-16q-1 -8 -1.5 -13.5t-5.5 -5.5h-105z" />
<glyph unicode="&#xd0;" d="M67 290h-56q-7 0 -7 35q0 34 7 34h56v290h192q20 0 44.5 -1.5t48.5 -10t47 -28t41 -56t28.5 -92t10.5 -137.5q0 -80 -10.5 -135.5t-28 -91.5t-39.5 -55.5t-46 -29t-47 -11t-42 -1.5h-199v290zM267 69q20 0 45 2.5t46.5 25t36.5 74.5t15 152q0 99 -14 152t-35.5 76t-47 26 t-48.5 3h-129v-221h171q7 0 7 -34q0 -35 -7 -35h-171v-221h131z" />
<glyph unicode="&#xd1;" d="M56 650h85q17 0 23 -11t11 -20q2 -4 12 -28t25 -60.5t34 -82t38 -92.5t38 -91t33.5 -78.5t24 -55.5t10.5 -21h6v532q0 5 9.5 6.5t24.5 1.5t25 -1.5t10 -6.5v-642h-87q-16 0 -22 10t-11 21q-1 2 -10.5 24.5t-24.5 59t-34 82.5t-38.5 93.5t-38.5 92.5t-34 80.5t-24 56.5 t-10 21h-6v-534q0 -5 -9.5 -6t-25.5 -1q-15 0 -24.5 1t-9.5 6v643zM109 724q-2 -2 -4 -2q-3 0 -11.5 5t-17.5 12t-16 14t-7 10q0 4 10 15.5t28 23.5t41.5 21.5t50.5 9.5t46.5 -6.5t35.5 -14.5t30.5 -14.5t31.5 -6.5q18 0 32 6.5t24 14.5t15.5 14.5t6.5 6.5q3 0 11.5 -5 t17.5 -12t16 -14.5t7 -11.5q0 4 -7 -6t-23 -23.5t-40.5 -26t-58.5 -12.5q-26 0 -44.5 6.5t-34.5 14.5t-31 14.5t-33 6.5q-16 0 -29.5 -5.5t-23.5 -12.5t-16 -13.5t-7 -8.5z" />
<glyph unicode="&#xd2;" d="M263 0q-21 0 -46 1.5t-49.5 10.5t-47 28.5t-39.5 55.5t-27.5 92t-10.5 137t10.5 137t27.5 92t39.5 55.5t47 28.5t49 10.5t46.5 1.5t47 -1.5t49 -10.5t45.5 -29t38.5 -56t26.5 -91.5t9.5 -136.5t-10 -136.5t-26.5 -91.5t-38 -56t-45.5 -29t-49 -10.5t-47 -1.5zM262 68 q17 0 34.5 0.5t34 6.5t31 20.5t25.5 43t17 74t6 112.5q0 92 -11.5 143.5t-30 76.5t-42 30.5t-47.5 5.5q-17 0 -36 1t-38 -3.5t-35.5 -17.5t-29.5 -41.5t-20.5 -75.5t-7.5 -119q0 -67 6.5 -112t18 -73.5t26.5 -43.5t31.5 -21t34 -6.5t33.5 -0.5zM131 820q-3 1 -3 6 q0 6 3.5 15.5t8.5 19.5t9.5 17t6.5 7h1l231 -94q2 -1 2 -5q0 -6 -3.5 -16t-8.5 -19.5t-9.5 -16.5t-5.5 -7h-1z" />
<glyph unicode="&#xd3;" d="M263 0q-21 0 -46 1.5t-49.5 10.5t-47 28.5t-39.5 55.5t-27.5 92t-10.5 137t10.5 137t27.5 92t39.5 55.5t47 28.5t49 10.5t46.5 1.5t47 -1.5t49 -10.5t45.5 -29t38.5 -56t26.5 -91.5t9.5 -136.5t-10 -136.5t-26.5 -91.5t-38 -56t-45.5 -29t-49 -10.5t-47 -1.5zM262 68 q17 0 34.5 0.5t34 6.5t31 20.5t25.5 43t17 74t6 112.5q0 92 -11.5 143.5t-30 76.5t-42 30.5t-47.5 5.5q-17 0 -36 1t-38 -3.5t-35.5 -17.5t-29.5 -41.5t-20.5 -75.5t-7.5 -119q0 -67 6.5 -112t18 -73.5t26.5 -43.5t31.5 -21t34 -6.5t33.5 -0.5zM362 885h1q2 0 6.5 -7t9 -17 t8 -19.5t3.5 -15.5q0 -5 -2 -6l-231 -93h-1q-2 0 -6.5 7t-9 16.5t-8.5 19.5t-4 16q0 3 3 5z" />
<glyph unicode="&#xd4;" d="M263 0q-21 0 -46 1.5t-49.5 10.5t-47 28.5t-39.5 55.5t-27.5 92t-10.5 137t10.5 137t27.5 92t39.5 55.5t47 28.5t49 10.5t46.5 1.5t47 -1.5t49 -10.5t45.5 -29t38.5 -56t26.5 -91.5t9.5 -136.5t-10 -136.5t-26.5 -91.5t-38 -56t-45.5 -29t-49 -10.5t-47 -1.5zM262 68 q17 0 34.5 0.5t34 6.5t31 20.5t25.5 43t17 74t6 112.5q0 92 -11.5 143.5t-30 76.5t-42 30.5t-47.5 5.5q-17 0 -36 1t-38 -3.5t-35.5 -17.5t-29.5 -41.5t-20.5 -75.5t-7.5 -119q0 -67 6.5 -112t18 -73.5t26.5 -43.5t31.5 -21t34 -6.5t33.5 -0.5zM414 709q-7 4 -28.5 17 t-45 27.5t-41.5 26.5t-18 14q0 1 4 10.5t10 19.5t12.5 18.5t10.5 8.5q1 0 1 -0.5t1 -0.5l132 -82q2 -2 2 -3q-1 -4 -4 -12t-11 -19l-9 -13q-5 -5 -8.5 -9t-5.5 -4q-1 0 -2 1zM106 709q-1 -1 -2 -1q-3 1 -9 7t-14 19l-8 14q-7 12 -7 16q0 2 2 4l132 82h2q7 0 22 -25l8 -14 q7 -12 7 -16q0 -3 -18.5 -15t-41.5 -26t-44.5 -27.5t-28.5 -17.5z" />
<glyph unicode="&#xd5;" d="M264 0q-22 0 -46.5 1.5t-49.5 10.5t-47.5 28.5t-39.5 55.5t-27.5 92t-10.5 137t10.5 137t27.5 92t39.5 56t47 29t49 10.5t46.5 1.5q34 0 72 -5.5t70 -36t53 -97t21 -187.5q0 -81 -10 -136.5t-26.5 -91.5t-38 -56t-45.5 -29t-48.5 -10.5t-46.5 -1.5zM263 69q17 0 34.5 0.5 t34 6.5t30.5 20.5t25 43t17 73.5t6 112q0 100 -13 153t-34 76t-47.5 25.5t-53.5 2.5q-25 0 -51.5 -2.5t-48.5 -25.5t-36 -76t-14 -153q0 -67 6.5 -112t18 -73.5t26.5 -43t32 -20.5t34.5 -6.5t33.5 -0.5zM114 716q-2 -2 -4 -2q-3 0 -11.5 5t-17.5 12t-16 14t-7 10 q0 4 10 15.5t28 23.5t41.5 21.5t50.5 9.5t46.5 -6.5t35.5 -14.5t30.5 -14.5t31.5 -6.5q18 0 32 6.5t24 14.5t15.5 14.5t6.5 6.5q3 0 11.5 -5t17.5 -12t16 -14.5t7 -11.5q0 4 -7 -6t-23 -23.5t-40.5 -26t-58.5 -12.5q-26 0 -44.5 6.5t-34.5 14.5t-31 14.5t-33 6.5 q-16 0 -29.5 -5.5t-23.5 -12.5t-16 -13.5t-7 -8.5z" />
<glyph unicode="&#xd6;" d="M263 -1q-21 0 -46 1.5t-49.5 10.5t-47 29t-39.5 56t-27.5 92t-10.5 137t10.5 137t27.5 92t39.5 55.5t47 28.5t49 10.5t46.5 1.5t47 -1.5t49 -10.5t45.5 -29t38.5 -56t26.5 -91.5t9.5 -136.5t-10 -136.5t-26.5 -92t-38 -56t-45.5 -29t-49 -11t-47 -1.5zM262 68 q17 0 34.5 0.5t34 6.5t31 20.5t25.5 43t17 74t6 112.5q0 100 -13.5 153t-34.5 75.5t-47.5 25t-52.5 2.5q-25 0 -51.5 -2.5t-48.5 -25t-36 -75.5t-14 -153q0 -67 6.5 -112t18 -73.5t26.5 -43.5t31.5 -21t34 -6.5t33.5 -0.5zM294 730q-7 0 -7 35t7 35h106q7 0 7 -35t-7 -35 h-106zM119 730q-7 0 -7 35t7 35h105q5 0 6 -9t1 -26t-1 -26t-6 -9h-105z" />
<glyph unicode="&#xd7;" d="M144 161q-5 -5 -29 20q-25 24 -20 29l116 116l-31.5 31.5t-38 38.5t-32 32.5t-14.5 13.5q-5 4 20 29q24 25 29 20q0 -1 13.5 -14.5t32.5 -32t38.5 -38l31.5 -31.5l31.5 31.5t38.5 38t32.5 32t13.5 14.5q3 3 10 -2.5t19 -17.5q11 -12 17 -19t2 -10l-13.5 -13.5t-32 -32.5 t-38 -38.5l-31.5 -31.5l31.5 -31.5t38 -38.5t32 -32.5l13.5 -13.5q6 -5 -19 -29q-25 -25 -29 -20q0 1 -13.5 14.5t-32.5 32t-38.5 38l-31.5 31.5z" />
<glyph unicode="&#xd8;" d="M121 40q-17 15 -31 38.5t-24.5 57.5t-16.5 80.5t-6 108.5q0 81 10.5 137t27.5 92t39.5 55.5t47 28.5t49 10.5t46.5 1.5q18 0 37.5 -1t38.5 -7l4 12q2 7 35 -5q33 -11 30 -18l-7 -20q16 -15 30.5 -38t25 -57.5t16.5 -81.5t6 -109q0 -81 -10 -136.5t-26.5 -92t-38 -56 t-45.5 -29t-49 -11t-47 -1.5q-19 0 -39.5 1t-40.5 8l-5 -13q-2 -6 -35 5q-15 6 -23.5 10t-6.5 9zM314 575q-13 5 -26.5 5.5t-25.5 0.5q-25 0 -51.5 -2.5t-48.5 -25t-36 -75.5t-14 -153q0 -83 11 -129.5t28 -72.5zM207 75q14 -6 28 -6.5t27 -0.5q17 0 34.5 0.5t34 6.5 t31 20.5t25.5 43t17 74t6 112.5q0 84 -11 131t-28 72z" />
<glyph unicode="&#xd9;" d="M51 643q0 5 9.5 6t25.5 1q15 0 24.5 -1t9.5 -6v-456q0 -45 13 -69t33.5 -35.5t45.5 -13t50 -1.5q23 0 47.5 1t45 12t33.5 35t13 71v456q0 5 9.5 6t24.5 1t25 -1t10 -6v-456q0 -49 -11.5 -82t-30 -53.5t-42 -31.5t-46.5 -15.5t-43.5 -5t-33.5 -0.5q-14 0 -35 0.5t-44.5 5 t-47 15.5t-42.5 32t-31 53.5t-12 81.5v456zM132 812q-3 1 -3 6q0 6 3.5 15.5t8.5 19.5t9.5 17t6.5 7h1l231 -94q2 -1 2 -5q0 -6 -3.5 -16t-8.5 -19.5t-9.5 -16.5t-5.5 -7h-1z" />
<glyph unicode="&#xda;" d="M51 643q0 5 9.5 6t25.5 1q15 0 24.5 -1t9.5 -6v-456q0 -45 13 -69t33.5 -35.5t45.5 -13t50 -1.5q23 0 47.5 1t45 12t33.5 35t13 71v456q0 5 9.5 6t24.5 1t25 -1t10 -6v-456q0 -49 -11.5 -82t-30 -53.5t-42 -31.5t-46.5 -15.5t-43.5 -5t-33.5 -0.5q-14 0 -35 0.5t-44.5 5 t-47 15.5t-42.5 32t-31 53.5t-12 81.5v456zM363 877h1q2 0 6.5 -7t9 -17t8 -19.5t3.5 -15.5q0 -5 -2 -6l-231 -93h-1q-2 0 -6.5 7t-9 16.5t-8.5 19.5t-4 16q0 3 3 5z" />
<glyph unicode="&#xdb;" d="M106 709q-1 -1 -2 -1q-3 1 -9 7t-14 19l-8 14q-7 12 -7 16q0 2 2 4l132 82h2q7 0 22 -25l8 -14q7 -12 7 -16q0 -3 -18.5 -15t-41.5 -26t-44.5 -27.5t-28.5 -17.5zM414 709q-7 4 -28.5 17t-45 27.5t-41.5 26.5t-18 14q0 1 4 10.5t10 19.5t12.5 18.5t10.5 8.5q1 0 1 -0.5 t1 -0.5l132 -82q2 -2 2 -3q-1 -4 -4 -12t-11 -19l-9 -13q-5 -5 -8.5 -9t-5.5 -4q-1 0 -2 1zM51 643q0 5 9.5 6t25.5 1q15 0 24.5 -1t9.5 -6v-456q0 -44 12.5 -68.5t32.5 -35.5t44.5 -13t49.5 -2q23 0 48 1t46 11.5t34.5 35t13.5 71.5v456q0 5 9.5 6t24.5 1t25 -1t10 -6v-456 q0 -69 -22.5 -107t-53.5 -56t-65 -21.5t-56 -3.5q-11 0 -31.5 -0.5t-45 3t-50.5 13.5t-47 31t-34.5 55t-13.5 86v456z" />
<glyph unicode="&#xdc;" d="M51 643q0 5 9.5 6t25.5 1q15 0 24.5 -1t9.5 -6v-456q0 -45 13 -69t33.5 -35.5t45.5 -13t50 -1.5q23 0 47.5 1t45 12t33.5 35t13 71v456q0 5 9.5 6t24.5 1t25 -1t10 -6v-456q0 -49 -11.5 -82t-30 -53.5t-42 -31.5t-46.5 -15.5t-43.5 -5t-33.5 -0.5q-14 0 -35 0.5t-44.5 5 t-47 15.5t-42.5 32t-31 53.5t-12 81.5v456zM295 722q-8 0 -8 35t8 35h105q5 0 6 -9t1 -26t-1 -26t-6 -9h-105zM120 722q-8 0 -8 35t8 35h105q7 0 7 -35t-7 -35h-105z" />
<glyph unicode="&#xdd;" d="M227 317q-30 47 -60 93t-56 86t-46.5 72t-32.5 51q-1 1 -1 2q0 2 7 8.5t16.5 13t18.5 11.5t13 5t22 -27t43.5 -67.5t54.5 -87.5t55 -87q26 40 55 87t54.5 87.5t44 67.5t21.5 27q4 0 13 -5t18 -11.5t16 -13t7 -8.5v-2l-194 -303v-309q0 -7 -35 -7q-34 0 -34 7v310z M132 791q15 6 47.5 19.5t68 27.5t67.5 27.5t47 19.5h1q2 0 6.5 -7t9 -17t8 -19.5t3.5 -15.5q0 -2 -15 -9.5t-38 -17t-50.5 -21t-53.5 -21.5t-46.5 -18.5t-28.5 -11.5h-2q-2 0 -6.5 7t-9 17t-8 19.5t-3.5 15.5q0 3 3 5z" />
<glyph unicode="&#xdf;" d="M78 477q0 25 2.5 55t19.5 56.5t53 44t104 17.5q67 0 103.5 -16.5t53 -42t19 -56.5t2.5 -59q0 -20 -1 -39t-6 -35.5t-15.5 -31t-30.5 -26.5q25 -12 39 -29t20.5 -38t7.5 -45t1 -48q0 -34 -3.5 -67t-21.5 -59t-57 -42t-111 -16h-52q-7 0 -7 34q0 35 7 35h52q48 0 73 8 t36.5 23t13 37t1.5 50t-1.5 50.5t-13 38t-37 23.5t-72.5 8h-52q-7 0 -7 34q0 35 7 35h52q41 0 63 6t32.5 18.5t12 31.5t1.5 44t-1.5 44.5t-11.5 33t-32 20t-64 6.5t-64 -7.5t-32.5 -21t-12 -33t-1.5 -43.5v-667q0 -7 -35 -7q-34 0 -34 7v669z" />
<glyph unicode="&#xe0;" d="M260 -1q-27 0 -60 1.5t-62 15t-49 42.5t-20 85q0 31 9.5 58.5t30 48.5t54 33t81.5 12h134q-1 25 0.5 49t-5.5 43.5t-27.5 31.5t-65.5 12h-174q-5 0 -6 9.5t-1 24.5t1 25t6 10h188q75 0 114 -38.5t39 -105.5v-349q0 -5 -9.5 -6t-24.5 -1q-16 0 -25.5 1t-9.5 6v30 q-16 -16 -42 -27t-76 -11zM254 68q28 0 52 4t41 19.5t25.5 47t5.5 87.5h-125q-35 0 -57.5 -6t-35.5 -17.5t-17.5 -27t-4.5 -33.5q0 -28 8.5 -43t24 -22t37 -8t46.5 -1zM362 577q-9 3 -29.5 11.5t-46 18.5t-53.5 21.5t-51 21t-38 17t-15 9.5q0 6 3.5 15.5t8 19.5t9 17t6.5 7 h2q8 -3 28.5 -11.5t46 -18.5t53.5 -21.5t51 -21t38 -17t15 -9.5q0 -6 -3.5 -15.5t-8 -19.5t-9 -17t-6.5 -7h-1z" />
<glyph unicode="&#xe1;" d="M260 -1q-27 0 -60 1.5t-62 15t-49 42.5t-20 85q0 31 9.5 58.5t30 48.5t54 33t81.5 12h134q-1 25 0.5 49t-5.5 43.5t-27.5 31.5t-65.5 12h-174q-5 0 -6 9.5t-1 24.5t1 25t6 10h188q75 0 114 -38.5t39 -105.5v-349q0 -5 -9.5 -6t-24.5 -1q-16 0 -25.5 1t-9.5 6v30 q-16 -16 -42 -27t-76 -11zM254 68q28 0 52 4t41 19.5t25.5 47t5.5 87.5h-125q-35 0 -57.5 -6t-35.5 -17.5t-17.5 -27t-4.5 -33.5q0 -28 8.5 -43t24 -22t37 -8t46.5 -1zM132 641q15 6 47.5 19.5t68 27.5t67.5 27.5t47 19.5h1q2 0 6.5 -7t9 -17t8 -19.5t3.5 -15.5 q0 -2 -15 -9.5t-38 -17t-50.5 -21t-53.5 -21.5t-46.5 -18.5t-28.5 -11.5h-2q-2 0 -6.5 7t-9 17t-8 19.5t-3.5 15.5q0 3 3 5z" />
<glyph unicode="&#xe2;" d="M260 -1q-27 0 -60 1.5t-62 15t-49 42.5t-20 85q0 31 9.5 58.5t30 48.5t54 33t81.5 12h134v66q0 31 -20 50.5t-65 19.5h-187q-5 0 -6 9.5t-1 24.5t1 25t6 10h188q72 0 112.5 -36.5t40.5 -101.5v-355q0 -5 -9.5 -6t-24.5 -1q-16 0 -25.5 1t-9.5 6v30q-16 -16 -42 -27 t-76 -11zM254 68q25 0 47.5 3t39.5 15.5t27 37t10 68.5v34h-135q-32 0 -52 -6t-32 -17.5t-16.5 -27t-4.5 -33.5q0 -28 8.5 -43t24 -22t37 -8t46.5 -1zM110 575q-7 -4 -25 25q-19 28 -14 32l14 9.5t34.5 23t44.5 29.5l45 30t35.5 23.5t15.5 10.5q1 -1 15.5 -10.5t35 -23.5 t44.5 -30t44.5 -29.5t34 -23t14.5 -9.5q6 -4 -14 -32q-18 -29 -25 -25l-20.5 13.5t-46 31t-49.5 33.5l-33 22q-9 -6 -33.5 -22t-50 -33.5t-46 -31z" />
<glyph unicode="&#xe3;" d="M260 -1q-27 0 -60 1.5t-62 15t-49 42.5t-20 85q0 31 9.5 58.5t30 48.5t54 33t81.5 12h134v66q0 31 -20 50.5t-65 19.5h-187q-5 0 -6 9.5t-1 24.5t1 25t6 10h188q72 0 112.5 -36.5t40.5 -101.5v-355q0 -5 -9.5 -6t-24.5 -1q-16 0 -25.5 1t-9.5 6v30q-16 -16 -42 -27 t-76 -11zM254 68q25 0 47.5 3t39.5 15.5t27 37t10 68.5v34h-135q-32 0 -52 -6t-32 -17.5t-16.5 -27t-4.5 -33.5q0 -28 8.5 -43t24 -22t37 -8t46.5 -1zM114 574q-2 -2 -4 -2q-3 0 -11.5 5t-17.5 12t-16 14t-7 10q0 4 10 15.5t28 23.5t41.5 21.5t50.5 9.5t46.5 -6.5 t35.5 -14.5t30.5 -14.5t31.5 -6.5q18 0 32 6.5t24 14.5t15.5 14.5t6.5 6.5q3 0 11.5 -5t17.5 -12t16 -14.5t7 -11.5q0 4 -7 -6t-23 -23.5t-40.5 -26t-58.5 -12.5q-26 0 -44.5 6.5t-34.5 14.5t-31 14.5t-33 6.5q-16 0 -29.5 -5.5t-23.5 -12.5t-16 -13.5t-7 -8.5z" />
<glyph unicode="&#xe4;" d="M260 -1q-27 0 -60 1.5t-62 15t-49 42.5t-20 85q0 31 9.5 58.5t30 48.5t54 33t81.5 12h134v66q0 31 -20 50.5t-65 19.5h-187q-5 0 -6 9.5t-1 24.5t1 25t6 10h188q72 0 112.5 -36.5t40.5 -101.5v-355q0 -5 -9.5 -6t-24.5 -1q-16 0 -25.5 1t-9.5 6v30q-16 -16 -42 -27 t-76 -11zM254 68q25 0 47.5 3t39.5 15.5t27 37t10 68.5v34h-135q-32 0 -52 -6t-32 -17.5t-16.5 -27t-4.5 -33.5q0 -28 8.5 -43t24 -22t37 -8t46.5 -1zM295 580q-8 0 -8 35t8 35h105q5 0 6 -9t1 -26t-1 -26t-6 -9h-105zM120 580q-8 0 -8 35t8 35h105q7 0 7 -35t-7 -35h-105z " />
<glyph unicode="&#xe5;" d="M266 -1q-27 0 -60 1.5t-62 15t-49 42.5t-20 85q0 31 9.5 58.5t30 48.5t54 33t81.5 12h134v66q0 31 -20 50.5t-65 19.5h-187q-5 0 -6 9.5t-1 24.5t1 25t6 10h188q72 0 112.5 -36.5t40.5 -101.5v-355q0 -5 -9.5 -6t-24.5 -1q-16 0 -25.5 1t-9.5 6v30q-16 -16 -42 -27 t-76 -11zM260 68q25 0 47.5 3t39.5 15.5t27 37t10 68.5v34h-135q-32 0 -52 -6t-32 -17.5t-16.5 -27t-4.5 -33.5q0 -28 8.5 -43t24 -22t37 -8t46.5 -1zM265 546q-22 0 -41 8.5t-32.5 22.5t-21 32.5t-7.5 38.5t7.5 38.5t21 32.5t32.5 22.5t41 8.5t40.5 -8.5t32 -22.5t21 -32.5 t7.5 -38.5t-7.5 -38.5t-21 -32.5t-32 -22.5t-40.5 -8.5zM264 608q19 0 30 12.5t11 27.5q0 16 -11.5 28t-29.5 12q-17 0 -28 -12t-11 -28q0 -15 11 -27.5t28 -12.5z" />
<glyph unicode="&#xe6;" d="M147 0q-23 0 -48.5 1.5t-46.5 14.5t-34.5 42.5t-13.5 84.5q0 32 5 59t21.5 46t48 29.5t84.5 10.5h65q-3 21 -1 44t1 43.5t-9 34.5t-31 17q-3 1 -25 2t-48.5 2t-50 1t-28.5 -1q-5 0 -6 9.5t-1 25.5q0 14 1 24t6 10h133q41 0 61.5 -13t36.5 -37q11 18 22 28.5t23 15t25 5.5 t29 1q40 0 67.5 -7.5t44.5 -36t24.5 -84.5t7.5 -154h-212q1 -51 5.5 -81t12 -45t19 -19t26.5 -4h131q2 0 4 -15.5t2 -28.5q0 -6 -0.5 -15.5t-5.5 -9.5h-117q-18 0 -34 1t-30 6t-26.5 16t-23.5 31q-13 -20 -25.5 -31t-26 -16t-29 -6t-33.5 -1zM149 69q17 0 31.5 2.5t25 13.5 t16.5 35t6 68v30h-79q-27 0 -42 -5t-22.5 -14.5t-9.5 -23.5t-2 -33q0 -28 4.5 -43t13.5 -21.5t23.5 -7.5t34.5 -1zM440 288q-1 52 -5 81t-11.5 42.5t-19 16.5t-26.5 3q-21 0 -36 -0.5t-24.5 -13t-14 -42t-5.5 -87.5h142z" />
<glyph unicode="&#xe7;" d="M209 -171q-5 0 -6 7t-1 18t1 18.5t6 7.5q40 0 63.5 1.5t35 5t14.5 8.5t3 12t-1 11.5t-10 7t-29 3.5t-57 1v70q-28 2 -55 11.5t-48.5 35.5t-34.5 75t-13 130q0 91 17 141.5t43.5 74t60 28t66.5 4.5h32t39 -4t40 -13t36 -26.5t25.5 -46t9.5 -70.5q0 -5 -10.5 -6t-24.5 -1 t-24.5 1t-10.5 6q0 34 -7 52.5t-20 27t-31.5 10t-41.5 1.5q-30 0 -54 -1.5t-40.5 -17t-25.5 -53t-9 -109.5t9.5 -109.5t26 -54t39 -18t47.5 -1.5h18q21 0 37.5 3t28 12.5t17.5 28t6 49.5q0 6 11.5 7t23.5 1t23.5 -1.5t11.5 -6.5q0 -54 -15 -85.5t-37.5 -48t-48.5 -21.5 t-49 -6v-19q19 0 36.5 -2.5t30.5 -10t20.5 -22t7.5 -38.5q0 -20 -4.5 -34.5t-22.5 -24.5t-54.5 -14.5t-100.5 -4.5z" />
<glyph unicode="&#xe8;" d="M252 0q-18 0 -38.5 1t-40.5 7.5t-38.5 21t-32 42.5t-22 71t-8.5 106q0 62 7.5 105t21 71t31 43.5t37.5 22.5t41.5 8.5t42.5 1.5q50 0 85.5 -8.5t58 -37.5t33 -86t10.5 -154h-297q2 -56 11 -86t23.5 -43.5t33.5 -15t40 -1.5h166q5 0 6 -11t1 -24t-1 -23.5t-6 -10.5h-165z M370 284q-2 54 -9.5 84t-20 44t-31 17t-40.5 3q-29 0 -51.5 -1t-38.5 -13.5t-25 -43t-11 -90.5h227zM131 670q-3 1 -3 6q0 6 3.5 15.5t8.5 19.5t9.5 17t6.5 7h1l231 -94q2 -1 2 -5q0 -6 -3.5 -16t-8.5 -19.5t-9.5 -16.5t-5.5 -7h-1z" />
<glyph unicode="&#xe9;" d="M252 0q-18 0 -38.5 1t-40.5 7.5t-38.5 21t-32 42.5t-22 71t-8.5 106q0 62 7.5 105t21 71t31 43.5t37.5 22.5t41.5 8.5t42.5 1.5q50 0 85.5 -8.5t58 -37.5t33 -86t10.5 -154h-297q2 -56 11 -86t23.5 -43.5t33.5 -15t40 -1.5h166q5 0 6 -11t1 -24t-1 -23.5t-6 -10.5h-165z M370 284q-2 54 -9.5 84t-20 44t-30.5 17t-41 3q-29 0 -51.5 -1t-38.5 -13.5t-25 -43t-11 -90.5h227zM362 735h1q2 0 6.5 -7t9 -17t8 -19.5t3.5 -15.5q0 -5 -2 -6l-231 -93h-1q-2 0 -6.5 7t-9 16.5t-8.5 19.5t-4 16q0 3 3 5z" />
<glyph unicode="&#xea;" d="M252 0q-18 0 -38.5 1t-40.5 7.5t-38.5 21t-32 42.5t-22 71t-8.5 106q0 62 7.5 105t21 71t31 43.5t37.5 22.5t41.5 8.5t42.5 1.5q50 0 85.5 -8.5t58 -37.5t33 -86t10.5 -154h-297q2 -56 11 -86t23.5 -43.5t33.5 -15t40 -1.5h166q5 0 6 -11t1 -24t-1 -23.5t-6 -10.5h-165z M370 284q-2 54 -9.5 84t-20 44t-30.5 17t-41 3q-29 0 -51.5 -1t-38.5 -13.5t-25 -43t-11 -90.5h227zM109 575q-1 -1 -2 -1q-2 0 -8.5 7t-13 16t-11.5 18t-5 13q0 2 2 4l188 126l188 -126q2 -2 2 -4q0 -4 -5 -13t-11.5 -18t-13 -16t-8.5 -7q-1 0 -2 1l-150 100z" />
<glyph unicode="&#xeb;" d="M252 0q-18 0 -38.5 1t-40.5 7.5t-38.5 21t-32 42.5t-22 71t-8.5 106q0 62 7.5 105t21 71t31 43.5t37.5 22.5t41.5 8.5t42.5 1.5q50 0 85.5 -8.5t58 -37.5t33 -86t10.5 -154h-297q2 -56 11 -86t23.5 -43.5t33.5 -15t40 -1.5h166q5 0 6 -11t1 -24t-1 -23.5t-6 -10.5h-165z M370 284q-2 54 -9.5 84t-20 44t-30.5 17t-41 3q-29 0 -51.5 -1t-38.5 -13.5t-25 -43t-11 -90.5h227zM119 580q-7 0 -7 35v16q1 8 2 13.5t5 5.5h105q5 0 6 -9t1 -26v-16q-1 -8 -1.5 -13.5t-5.5 -5.5h-105zM294 580q-7 0 -7 35v16q1 8 2 13.5t5 5.5h106q7 0 7 -35 q0 -12 -1 -23.5t-6 -11.5h-106z" />
<glyph unicode="&#xec;" d="M130 0q-7 0 -7 34q0 35 7 35h173v362h-233q-7 0 -7 35q0 34 7 34h302v-431h73q5 0 6 -9t1 -26t-1 -25.5t-6 -8.5h-315zM362 577q-9 3 -29.5 11.5t-46 18.5t-53.5 21.5t-51 21t-38 17t-15 9.5q0 6 3.5 15.5t8 19.5t9 17t6.5 7h2q8 -3 28.5 -11.5t46 -18.5t53.5 -21.5 t51 -21t38 -17t15 -9.5q0 -6 -3.5 -15.5t-8 -19.5t-9 -17t-6.5 -7h-1z" />
<glyph unicode="&#xed;" d="M130 0q-7 0 -7 34q0 35 7 35h173v362h-233q-7 0 -7 35q0 34 7 34h302v-431h73q5 0 6 -9t1 -26t-1 -25.5t-6 -8.5h-315zM132 641q15 6 47.5 19.5t68 27.5t67.5 27.5t47 19.5h1q2 0 6.5 -7t9 -17t8 -19.5t3.5 -15.5q0 -2 -15 -9.5t-38 -17t-50.5 -21t-53.5 -21.5 t-46.5 -18.5t-28.5 -11.5h-2q-2 0 -6.5 7t-9 17t-8 19.5t-3.5 15.5q0 3 3 5z" />
<glyph unicode="&#xee;" d="M130 0q-7 0 -7 34q0 35 7 35h173v362h-233q-7 0 -7 35q0 34 7 34h302v-431h73q5 0 6 -9t1 -26t-1 -25.5t-6 -8.5h-315zM110 575q-1 -1 -2 -1q-3 0 -9 7t-12.5 16.5t-11.5 18.5t-5 13q0 2 1 3l189 126l188 -126q2 -2 2 -4q0 -3 -5.5 -12t-12 -18.5t-13 -16.5t-8.5 -7 q-1 0 -2 1l-149 100z" />
<glyph unicode="&#xef;" d="M130 0q-7 0 -7 34q0 35 7 35h173v362h-233q-7 0 -7 35q0 34 7 34h302v-431h73q5 0 6 -9t1 -26t-1 -25.5t-6 -8.5h-315zM120 580q-8 0 -8 35q0 12 1 23.5t7 11.5h105q7 0 7 -35q0 -12 -1 -23.5t-6 -11.5h-105zM295 580q-8 0 -8 35q0 12 1.5 23.5t6.5 11.5h105q5 0 6 -9 t1 -26v-16q-1 -8 -1.5 -13.5t-5.5 -5.5h-105z" />
<glyph unicode="&#xf0;" d="M261 0q-19 0 -40.5 1t-42 7.5t-39.5 21.5t-33 42.5t-22.5 71t-8.5 107.5q0 96 17.5 147t45 74t60.5 26t63 3q16 0 32.5 -0.5t31.5 -7.5q-22 37 -54 64l-38 -37q-5 -6 -29 19q-25 24 -20 29l31 31q-9 5 -17.5 9.5t-18.5 8.5q-5 2 -1.5 12.5t8.5 22.5q5 11 9.5 21t9.5 8 q16 -7 31 -14.5t29 -17.5l40 40q3 4 10.5 -2t19.5 -17q11 -12 16.5 -19t2.5 -10l-35 -36q54 -52 85.5 -124t35.5 -150q2 -17 3 -37.5t1 -43.5q0 -95 -17 -146t-43.5 -74t-59 -26.5t-63.5 -3.5zM261 69q25 0 46 1.5t36 18t23.5 53.5t8.5 108q0 70 -8 107.5t-23 54t-36 18.5 t-47 2t-47.5 -2t-37 -18.5t-24 -54t-8.5 -107.5q0 -71 9.5 -108.5t26 -53.5t37.5 -17.5t44 -1.5z" />
<glyph unicode="&#xf1;" d="M75 493q0 7 35 7q34 0 34 -7v-31q12 14 25.5 21.5t28 11.5t30 4.5t30.5 0.5q35 0 69 -3t61 -26t43.5 -75t16.5 -149v-240q0 -5 -11.5 -6t-22.5 -1q-13 0 -24 1t-11 6v240q0 70 -8.5 107.5t-23.5 54.5t-36 19.5t-47 2.5h-19q-24 0 -42.5 -5.5t-31.5 -23.5t-20 -53t-7 -94 v-248q0 -5 -8.5 -6t-25.5 -1t-26 1t-9 6v486zM114 574q-2 -2 -4 -2q-3 0 -11.5 5t-17.5 12t-16 14t-7 10q0 4 10 15.5t28 23.5t41.5 21.5t50.5 9.5t46.5 -6.5t35.5 -14.5t30.5 -14.5t31.5 -6.5q18 0 32 6.5t24 14.5t15.5 14.5t6.5 6.5q3 0 11.5 -5t17.5 -12t16 -14.5 t7 -11.5q0 4 -7 -6t-23 -23.5t-40.5 -26t-58.5 -12.5q-26 0 -44.5 6.5t-34.5 14.5t-31 14.5t-33 6.5q-16 0 -29.5 -5.5t-23.5 -12.5t-16 -13.5t-7 -8.5z" />
<glyph unicode="&#xf2;" d="M263 0q-29 0 -61.5 3.5t-60.5 26.5t-46 74t-18 146q0 91 16 141.5t41.5 74.5t56.5 29t61 5h44.5t44 -5.5t40.5 -19.5t33.5 -41.5t23 -72t8.5 -111.5q0 -95 -17 -146t-43.5 -74t-59 -26.5t-63.5 -3.5zM263 68q25 0 46 2t36 18.5t23.5 53.5t8.5 108q0 66 -7 102.5t-20.5 54 t-32 21t-42.5 3.5q-29 0 -52.5 -0.5t-40.5 -16.5t-26.5 -53.5t-9.5 -110.5q0 -71 9.5 -108.5t26 -54t37.5 -18t44 -1.5zM362 577q-9 3 -29.5 11.5t-46 18.5t-53.5 21.5t-51 21t-38 17t-15 9.5q0 6 3.5 15.5t8 19.5t9 17t6.5 7h2q8 -3 28.5 -11.5t46 -18.5t53.5 -21.5t51 -21 t38 -17t15 -9.5q0 -6 -3.5 -15.5t-8 -19.5t-9 -17t-6.5 -7h-1z" />
<glyph unicode="&#xf3;" d="M263 0q-29 0 -61.5 3.5t-60.5 26.5t-46 74t-18 146q0 91 16 141.5t41.5 74.5t56.5 29t61 5h44.5t44 -5.5t40.5 -19.5t33.5 -41.5t23 -72t8.5 -111.5q0 -95 -17 -146t-43.5 -74t-59 -26.5t-63.5 -3.5zM263 68q25 0 46 2t36 18.5t23.5 53.5t8.5 108q0 66 -7 102.5t-20.5 54 t-32 21t-42.5 3.5q-29 0 -52.5 -0.5t-40.5 -16.5t-26.5 -53.5t-9.5 -110.5q0 -71 9.5 -108.5t26 -54t37.5 -18t44 -1.5zM132 641q15 6 47.5 19.5t68 27.5t67.5 27.5t47 19.5h1q2 0 6.5 -7t9 -17t8 -19.5t3.5 -15.5q0 -2 -15 -9.5t-38 -17t-50.5 -21t-53.5 -21.5t-46.5 -18.5 t-28.5 -11.5h-2q-2 0 -6.5 7t-9 17t-8 19.5t-3.5 15.5q0 3 3 5z" />
<glyph unicode="&#xf4;" d="M263 -1q-19 0 -40.5 1t-42 7.5t-39.5 21.5t-33 42.5t-22.5 71t-8.5 107.5q0 96 17.5 147t45 74t60.5 26t63 3q31 0 64 -3t59 -25.5t43 -74t17 -147.5q0 -95 -17 -146.5t-43.5 -74.5t-59 -26.5t-63.5 -3.5zM263 68q25 0 46 2t36 18.5t23.5 53.5t8.5 108q0 70 -8 107 t-23 53.5t-36 18.5t-47 2t-47.5 -2t-37 -18.5t-24 -53.5t-8.5 -107q0 -71 9.5 -108.5t26 -54t37.5 -18t44 -1.5zM110 575q-7 -4 -25 25q-19 28 -14 32l14 9.5t34.5 23t44.5 29.5l45 30t35.5 23.5t15.5 10.5q1 -1 15.5 -10.5t35 -23.5t44.5 -30t44.5 -29.5t34 -23t14.5 -9.5 q6 -4 -14 -32q-18 -29 -25 -25l-20.5 13.5t-46 31t-49.5 33.5l-33 22q-9 -6 -33.5 -22t-50 -33.5t-46 -31z" />
<glyph unicode="&#xf5;" d="M261 -1q-19 0 -40.5 1t-42 7.5t-39.5 21.5t-33 42.5t-22.5 71t-8.5 107.5q0 96 17.5 147t45 74t60.5 26t63 3q31 0 64 -3t59 -25.5t43 -74t17 -147.5q0 -95 -17 -146.5t-43.5 -74.5t-59 -26.5t-63.5 -3.5zM261 68q25 0 46 2t36 18.5t23.5 53.5t8.5 108q0 70 -8 107 t-23 53.5t-36 18.5t-47 2t-47.5 -2t-37 -18.5t-24 -53.5t-8.5 -107q0 -71 9.5 -108.5t26 -54t37.5 -18t44 -1.5zM114 574q-2 -2 -4 -2q-3 0 -11.5 5t-17.5 12t-16 14t-7 10q0 4 10 15.5t28 23.5t41.5 21.5t50.5 9.5t46.5 -6.5t35.5 -14.5t30.5 -14.5t31.5 -6.5q18 0 32 6.5 t24 14.5t15.5 14.5t6.5 6.5q3 0 11.5 -5t17.5 -12t16 -14.5t7 -11.5q0 4 -7 -6t-23 -23.5t-40.5 -26t-58.5 -12.5q-26 0 -44.5 6.5t-34.5 14.5t-31 14.5t-33 6.5q-16 0 -29.5 -5.5t-23.5 -12.5t-16 -13.5t-7 -8.5z" />
<glyph unicode="&#xf6;" d="M263 -1q-19 0 -40.5 1t-42 7.5t-39.5 21.5t-33 42.5t-22.5 71t-8.5 107.5q0 96 17.5 147t45 74t60.5 26t63 3q31 0 64 -3t59 -25.5t43 -74t17 -147.5q0 -95 -17 -146.5t-43.5 -74.5t-59 -26.5t-63.5 -3.5zM263 68q25 0 46 2t36 18.5t23.5 53.5t8.5 108q0 70 -8 107 t-23 53.5t-36 18.5t-47 2t-47.5 -2t-37 -18.5t-24 -53.5t-8.5 -107q0 -71 9.5 -108.5t26 -54t37.5 -18t44 -1.5zM295 580q-8 0 -8 35t8 35h105q5 0 6 -9t1 -26t-1 -26t-6 -9h-105zM120 580q-8 0 -8 35t8 35h105q7 0 7 -35t-7 -35h-105z" />
<glyph unicode="&#xf7;" d="M228 234q0 7 35 7q34 0 34 -7v-74q0 -7 -34 -7q-35 0 -35 7v74zM228 491q0 8 35 8q34 0 34 -8v-73q0 -5 -8.5 -6t-25.5 -1t-26 1t-9 6v73zM93 291q-7 0 -7 35q0 34 7 34h336q7 0 7 -34q0 -35 -7 -35h-336z" />
<glyph unicode="&#xf8;" d="M134 36q-26 23 -42.5 72.5t-16.5 141.5q0 91 16 141.5t41.5 74.5t56.5 29t61 5q17 0 36 0.5t37 -4.5q2 4 3 8.5t6 4.5t15 -4t19.5 -9t17 -10t7.5 -7q0 -1 -1.5 -5t-3.5 -7q13 -11 23.5 -28.5t18 -43.5t12 -61.5t4.5 -83.5q0 -92 -16 -142.5t-41 -74.5t-56.5 -28.5 t-61.5 -4.5h-37.5t-36.5 4l-2.5 -7.5t-6.5 -4.5q-6 0 -15.5 3.5t-19 8.5t-16.5 9.5t-7 6.5v2zM294 429h-1l-16 2h-31q-21 0 -40 -3.5t-32.5 -20t-21.5 -52t-8 -99.5q0 -54 7.5 -87.5t19.5 -50.5zM225 71q5 -2 11 -2.5t13 -0.5q25 0 47.5 -0.5t40 14t27.5 51t10 110.5 q0 54 -7 89t-18 51q-31 -78 -61.5 -156t-62.5 -156z" />
<glyph unicode="&#xf9;" d="M259 0q-35 0 -69 3.5t-60 27t-42 75t-16 146.5v241q0 5 11.5 6t23.5 1t23 -1t11 -6v-240q0 -69 7.5 -106.5t22 -55t35 -20.5t47.5 -3q28 0 51.5 2t40.5 18t26.5 51.5t9.5 103.5v250q0 7 34 7q35 0 35 -7v-486q0 -5 -9 -6t-26 -1t-25.5 1t-8.5 6v30q-12 -14 -27 -21.5 t-31 -11t-32.5 -4t-31.5 -0.5zM362 577q-9 3 -29.5 11.5t-46 18.5t-53.5 21.5t-51 21t-38 17t-15 9.5q0 6 3.5 15.5t8 19.5t9 17t6.5 7h2q8 -3 28.5 -11.5t46 -18.5t53.5 -21.5t51 -21t38 -17t15 -9.5q0 -6 -3.5 -15.5t-8 -19.5t-9 -17t-6.5 -7h-1z" />
<glyph unicode="&#xfa;" d="M259 0q-35 0 -69 3.5t-60 27t-42 75t-16 146.5v241q0 5 11.5 6t23.5 1t23 -1t11 -6v-240q0 -69 7.5 -106.5t22 -55t35 -20.5t47.5 -3q28 0 51.5 2t40.5 18t26.5 51.5t9.5 103.5v250q0 7 34 7q35 0 35 -7v-486q0 -5 -9 -6t-26 -1t-25.5 1t-8.5 6v30q-12 -14 -27 -21.5 t-31 -11t-32.5 -4t-31.5 -0.5zM132 641q15 6 47.5 19.5t68 27.5t67.5 27.5t47 19.5h1q2 0 6.5 -7t9 -17t8 -19.5t3.5 -15.5q0 -2 -15 -9.5t-38 -17t-50.5 -21t-53.5 -21.5t-46.5 -18.5t-28.5 -11.5h-2q-2 0 -6.5 7t-9 17t-8 19.5t-3.5 15.5q0 3 3 5z" />
<glyph unicode="&#xfb;" d="M259 0q-35 0 -69 3.5t-60 27t-42 75t-16 146.5v241q0 5 11.5 6t23.5 1t23 -1t11 -6v-240q0 -69 7.5 -106.5t22 -55t35 -20.5t47.5 -3q28 0 51.5 2t40.5 18t26.5 51.5t9.5 103.5v250q0 7 34 7q35 0 35 -7v-486q0 -5 -9 -6t-26 -1t-25.5 1t-8.5 6v30q-12 -14 -27 -21.5 t-31 -11t-32.5 -4t-31.5 -0.5zM110 575q-1 -1 -2 -1q-3 0 -9 7t-12.5 16.5t-11.5 18.5t-5 13q0 2 1 3l189 126l188 -126q2 -2 2 -4q0 -3 -5.5 -12t-12 -18.5t-13 -16.5t-8.5 -7q-1 0 -2 1l-149 100z" />
<glyph unicode="&#xfc;" d="M259 0q-35 0 -69 3.5t-60 27t-42 75t-16 146.5v241q0 5 11.5 6t23.5 1t23 -1t11 -6v-240q0 -69 7.5 -106.5t22 -55t35 -20.5t47.5 -3q28 0 51.5 2t40.5 18t26.5 51.5t9.5 103.5v250q0 7 34 7q35 0 35 -7v-486q0 -5 -9 -6t-26 -1t-25.5 1t-8.5 6v30q-12 -14 -27 -21.5 t-31 -11t-32.5 -4t-31.5 -0.5zM120 580q-8 0 -8 35q0 12 1 23.5t7 11.5h105q7 0 7 -35q0 -12 -1 -23.5t-6 -11.5h-105zM295 580q-8 0 -8 35q0 12 1.5 23.5t6.5 11.5h105q5 0 6 -9t1 -26v-16q-1 -8 -1.5 -13.5t-5.5 -5.5h-105z" />
<glyph unicode="&#xfd;" d="M107 -182q-5 0 -6 11.5t-1 22.5t1 23t6 12h178q16 1 33 5t31 16.5t23 36t9 62.5v30q-23 -27 -53 -32t-60 -5q-36 0 -70 3t-61 26t-43 74.5t-16 148.5v241q0 5 11 6t23 1t23.5 -1t11.5 -6v-240q0 -70 7.5 -107.5t22 -55t35.5 -20t49 -2.5h19q28 0 47.5 8t31.5 28t17 54 t5 86v249q0 5 11.5 6t23.5 1t23 -1t11 -6v-486q0 -71 -21 -109.5t-50.5 -56t-60.5 -20.5t-51 -3h-160zM132 641q15 6 47.5 19.5t68 27.5t67.5 27.5t47 19.5h1q2 0 6.5 -7t9 -17t8 -19.5t3.5 -15.5q0 -2 -15 -9.5t-38 -17t-50.5 -21t-53.5 -21.5t-46.5 -18.5t-28.5 -11.5h-2 q-2 0 -6.5 7t-9 17t-8 19.5t-3.5 15.5q0 3 3 5z" />
<glyph unicode="&#xff;" d="M107 -183q-5 0 -6 12t-1 23t1 22.5t6 11.5h159q18 0 38.5 2t37.5 13t28 36t11 70v30q-24 -29 -56 -33.5t-63 -4.5q-35 0 -68.5 4t-59 27.5t-41 75t-15.5 146.5v241q0 5 11 6t23 1t23.5 -1t11.5 -6v-240q0 -70 7.5 -107.5t22 -55t35.5 -20t49 -2.5q32 0 55 5.5t37 23.5 t21 53t7 94v249q0 5 11.5 6t23.5 1t23 -1t11 -6v-486q0 -72 -21 -110.5t-50.5 -56t-60.5 -20.5t-51 -3h-160zM295 580q-8 0 -8 35t8 35h105q5 0 6 -9t1 -26t-1 -26t-6 -9h-105zM120 580q-8 0 -8 35t8 35h105q7 0 7 -35t-7 -35h-105z" />
<glyph unicode="&#x152;" d="M167 0q-20 0 -40.5 1.5t-40.5 10.5t-37.5 29t-30.5 56t-21 91.5t-8 136.5q0 115 15 180t39 97t53.5 40t58.5 8q16 0 32 -0.5t31 -4.5t28.5 -13t25.5 -26v44h247q7 0 7 -35t-7 -35h-178v-219h143q7 0 7 -35q0 -34 -7 -34h-143v-223h178q7 0 7 -35q0 -34 -7 -34h-247v43 q-11 -16 -23 -25t-25.5 -13t-27.5 -4.5t-29 -0.5zM166 69q22 0 41 2.5t33 25.5t22.5 75.5t8.5 152.5q0 93 -7 144.5t-19.5 76t-29.5 30t-38 5.5q-16 0 -31 0.5t-28 -4t-24 -18t-19 -42t-12.5 -75t-4.5 -117.5q0 -100 9 -152.5t24 -75.5t34.5 -25.5t40.5 -2.5z" />
<glyph unicode="&#x153;" d="M150 -1q-23 0 -49 4t-47.5 27.5t-36 74.5t-14.5 146q0 93 13 144t34 74.5t46 28t49 4.5q16 0 32 -0.5t30.5 -6.5t27.5 -19.5t25 -39.5q10 24 22 37t25.5 19.5t28.5 7.5t32 1q46 0 75 -8.5t45 -37.5t21.5 -86t5.5 -154h-219q1 -49 5.5 -77.5t12 -43.5t18.5 -19.5t26 -5.5 h137q5 0 6 -11t1 -24q0 -12 -1 -23t-6 -11h-118q-17 0 -33 1t-31.5 7t-29 19t-23.5 38q-12 -25 -24.5 -38.5t-26.5 -19.5t-28.5 -7t-30.5 -1zM150 68q16 0 30 2t24 18.5t15.5 54t5.5 107.5q0 67 -4.5 104t-13.5 54.5t-22 21t-29 3.5q-21 0 -37 -2t-26.5 -18.5t-15.5 -54 t-5 -107.5q0 -71 6.5 -108.5t17 -54t24.5 -18.5t30 -2zM445 285q-1 55 -5.5 84.5t-13.5 43.5t-22 16.5t-29 2.5q-20 0 -34.5 -1.5t-24 -15t-14.5 -43.5t-6 -87h149z" />
<glyph unicode="&#x178;" d="M227 317q-30 47 -60 93t-56 86t-46.5 72t-32.5 51q-1 1 -1 2q0 2 7 8.5t16.5 13t18.5 11.5t13 5t22 -27t43.5 -67.5t54.5 -87.5t55 -87q26 40 55 87t54.5 87.5t44 67.5t21.5 27q4 0 13 -5t18 -11.5t16 -13t7 -8.5v-2l-194 -303v-309q0 -7 -35 -7q-34 0 -34 7v310z M120 730q-8 0 -8 35q0 12 1 23.5t7 11.5h105q7 0 7 -35q0 -12 -1 -23.5t-6 -11.5h-105zM295 730q-8 0 -8 35q0 12 1.5 23.5t6.5 11.5h105q5 0 6 -9t1 -26v-16q-1 -8 -1.5 -13.5t-5.5 -5.5h-105z" />
<glyph unicode="&#x2c6;" d="M110 575q-7 -4 -25 25q-19 28 -14 32l14 9.5t34.5 23t44.5 29.5l45 30t35.5 23.5t15.5 10.5q1 -1 15.5 -10.5t35 -23.5t44.5 -30t44.5 -29.5t34 -23t14.5 -9.5q6 -4 -14 -32q-18 -29 -25 -25l-20.5 13.5t-46 31t-49.5 33.5l-33 22q-9 -6 -33.5 -22t-50 -33.5t-46 -31z " />
<glyph unicode="&#x2dc;" d="M114 574q-2 -2 -4 -2q-3 0 -11.5 5t-17.5 12t-16 14t-7 10q0 4 10 15.5t28 23.5t41.5 21.5t50.5 9.5t46.5 -6.5t35.5 -14.5t30.5 -14.5t31.5 -6.5q18 0 32 6.5t24 14.5t15.5 14.5t6.5 6.5q3 0 11.5 -5t17.5 -12t16 -14.5t7 -11.5q0 4 -7 -6t-23 -23.5t-40.5 -26 t-58.5 -12.5q-26 0 -44.5 6.5t-34.5 14.5t-31 14.5t-33 6.5q-16 0 -29.5 -5.5t-23.5 -12.5t-16 -13.5t-7 -8.5z" />
<glyph unicode="&#x2000;" horiz-adv-x="442" />
<glyph unicode="&#x2001;" horiz-adv-x="885" />
<glyph unicode="&#x2002;" horiz-adv-x="442" />
<glyph unicode="&#x2003;" horiz-adv-x="885" />
<glyph unicode="&#x2004;" horiz-adv-x="295" />
<glyph unicode="&#x2005;" horiz-adv-x="221" />
<glyph unicode="&#x2006;" horiz-adv-x="147" />
<glyph unicode="&#x2007;" horiz-adv-x="147" />
<glyph unicode="&#x2008;" horiz-adv-x="110" />
<glyph unicode="&#x2009;" horiz-adv-x="177" />
<glyph unicode="&#x200a;" horiz-adv-x="49" />
<glyph unicode="&#x2010;" d="M102 291q-7 0 -7 35q0 34 7 34h316q7 0 7 -34q0 -35 -7 -35h-316z" />
<glyph unicode="&#x2011;" d="M102 291q-7 0 -7 35q0 34 7 34h316q7 0 7 -34q0 -35 -7 -35h-316z" />
<glyph unicode="&#x2012;" d="M102 291q-7 0 -7 35q0 34 7 34h316q7 0 7 -34q0 -35 -7 -35h-316z" />
<glyph unicode="&#x2013;" d="M62 291q-7 0 -7 35q0 34 7 34h397q7 0 7 -34q0 -35 -7 -35h-397z" />
<glyph unicode="&#x2014;" d="M42 291q-7 0 -7 35q0 34 7 34h437q7 0 7 -34q0 -35 -7 -35h-437z" />
<glyph unicode="&#x2018;" d="M220 736q0 5 7.5 5.5t21.5 0.5h13q6 0 11 -1t5 -5v-71h12q5 0 5.5 -7.5t0.5 -21.5v-13q0 -17 -7 -17h-69v130z" />
<glyph unicode="&#x2019;" d="M241 635h-12q-5 0 -5.5 7.5t-0.5 21.5v13q0 16 7 16h69v-130q0 -6 -29 -6h-13q-6 1 -11 2t-5 4v72z" />
<glyph unicode="&#x201a;" d="M242 -15h-13q-5 0 -5.5 7.5t-0.5 21.5v13q0 7 1 12t6 4h70v-129q0 -5 -7.5 -5.5t-21.5 -0.5h-13q-16 0 -16 6v71z" />
<glyph unicode="&#x201c;" d="M270 736q0 5 7.5 5.5t21.5 0.5h13q6 0 11 -1t5 -5v-71h12q5 0 5.5 -7.5t0.5 -21.5v-13q0 -17 -7 -17h-69v130zM170 736q0 5 7.5 5.5t21.5 0.5h13q6 0 11 -1t5 -5v-71h12q5 0 5.5 -7.5t0.5 -21.5v-13q0 -17 -7 -17h-69v130z" />
<glyph unicode="&#x201d;" d="M291 635h-13q-5 0 -5.5 7.5t-0.5 21.5v13q0 7 1 12t6 4h70v-130q0 -6 -29 -6h-13q-16 2 -16 6v72zM191 635h-13q-5 0 -5.5 7.5t-0.5 21.5v13q0 7 1 12t6 4h70v-130q0 -6 -29 -6h-13q-16 2 -16 6v72z" />
<glyph unicode="&#x201e;" horiz-adv-x="510" d="M266 68q0 7 35 7h16q8 -1 13 -2t5 -5v-108q0 -7 -34 -7q-14 0 -24.5 1t-10.5 6v108zM175 68q0 7 35 7h16q8 -1 13.5 -2t5.5 -5v-108q0 -7 -35 -7q-12 0 -23.5 1t-11.5 6v108z" />
<glyph unicode="&#x2022;" d="M215 279q-7 1 -9 14t-2 35q0 20 2.5 33t8.5 13h88q8 0 9.5 -13t1.5 -34q0 -22 -1.5 -35t-9.5 -13h-88z" />
<glyph unicode="&#x2026;" d="M322 80q0 7 35 7q34 0 34 -7v-74q0 -5 -8.5 -5.5t-25.5 -0.5t-26 0.5t-9 5.5v74zM224 80q0 7 35 7t35 -7v-74q0 -5 -9 -5.5t-26 -0.5t-26 0.5t-9 5.5v74zM127 80q0 7 35 7q34 0 34 -7v-74q0 -5 -8.5 -5.5t-25.5 -0.5t-26 0.5t-9 5.5v74z" />
<glyph unicode="&#x202f;" horiz-adv-x="177" />
<glyph unicode="&#x2039;" d="M340 130l-96.5 96.5l-99.5 99.5l21 21l37.5 37.5l45.5 45.5t44.5 44t33.5 33.5t14 13.5q1 1 3 1q3 0 10.5 -6.5t16 -14.5t14.5 -15.5t6 -10.5q0 -2 -1 -3l-148 -146l95.5 -95.5t52.5 -51.5q1 -1 1 -3q0 -3 -6.5 -10.5t-14.5 -16t-15.5 -15t-10.5 -6.5q-1 0 -3 2z" />
<glyph unicode="&#x203a;" d="M143 179q18 17 52.5 51.5l95.5 95.5l-148 146q-1 1 -1 3q0 3 6 10.5t14.5 15.5t16 14.5t10.5 6.5q2 0 3 -1q11 -11 36 -35.5t54 -53.5t57.5 -58t48.5 -48q-13 -13 -40 -40.5t-57 -57.5l-57.5 -57.5t-41.5 -40.5q-2 -2 -3 -2q-3 0 -10.5 6.5t-16 15t-14.5 16t-6 10.5 q0 2 1 3z" />
<glyph unicode="&#x205f;" horiz-adv-x="221" />
<glyph unicode="&#x20ac;" d="M279 0q-29 0 -63 4.5t-64.5 27.5t-54 71.5t-32.5 137.5h-42q-7 0 -7 34q0 35 7 35h37v31h-37q-7 0 -7 35q0 34 7 34h42q9 83 30.5 131t50 72t61 30.5t62.5 6.5h26q22 0 53.5 -5t61 -24.5t50.5 -59.5t21 -110q0 -5 -9.5 -6t-25.5 -1q-15 0 -24.5 1t-9.5 6q0 49 -12.5 75.5 t-31 38.5t-40.5 14t-41 2h-15q-25 0 -47.5 -4t-41 -21.5t-31 -51.5t-18.5 -94h193q7 0 7 -34q0 -35 -7 -35h-198v-31h198q7 0 7 -35q0 -34 -7 -34h-192q5 -63 18.5 -97.5t32 -51t40 -19.5t43.5 -3q25 0 50 1t45.5 12t33 36.5t12.5 73.5q0 6 22 6h34.5t12.5 -6 q0 -73 -23 -112t-55 -57t-66 -21t-56 -3z" />
<glyph unicode="&#x25fc;" horiz-adv-x="510" d="M0 510h510v-510h-510v510z" />
</font>
</defs>
</svg>
